<svg width="65" height="72" viewBox="0 0 65 72" fill="none" xmlns="http://www.w3.org/2000/svg"><g clip-path="url(#clip0_2202_7079)"><path d="M43.5593 17.4008C43.5593 17.4008 45.0135 18.3196 45.4133 18.5264C46.7256 19.2649 47.9581 20.1387 49.0908 21.1336C50.5374 22.443 55.6426 27.4201 55.9852 27.8834C56.5934 28.7079 57.154 29.5669 57.6641 30.4562C57.817 30.8657 57.9118 31.2949 57.9458 31.7311C57.9458 31.911 57.2415 32.6614 57.0473 33.0366C56.994 33.1859 56.9103 33.7487 56.6095 33.7832C56.3559 33.8278 56.0954 33.8134 55.8481 33.7411C55.7834 33.6722 55.3685 32.9754 55.3685 32.9754C55.1423 32.9186 54.9228 32.8377 54.7137 32.7342C54.609 32.6623 54.5209 32.5688 54.4552 32.4598C54.3896 32.3508 54.3479 32.229 54.333 32.1025C54.333 31.823 54.3672 30.4332 54.333 30.0848C54.2987 29.7364 53.347 28.7946 51.3102 27.29C49.2735 25.7853 47.233 25.0809 45.28 23.6222C43.7572 22.4736 42.9958 21.9836 42.9958 21.9836C41.7852 21.727 39.5696 20.9805 39.5696 20.9805L40.3005 16.2522C40.3005 16.2522 42.1012 16.8035 43.5593 17.4008Z" fill="#FFCFC4"></path><path d="M19.64 23.2278C19.64 23.2278 18.1172 23.8212 17.7365 23.9935C16.4472 24.5762 15.1012 25.0227 13.7202 25.3259C11.9271 25.6896 5.3449 26.7769 4.78908 26.7769C3.82991 26.7779 2.87148 26.7229 1.91864 26.6123C1.52697 26.4989 1.15285 26.3314 0.807008 26.1146C0.673764 26.0035 0.502448 25.0579 0.327327 24.698C0.243574 24.5755 -0.129504 24.1926 0.01516 23.9323C0.159824 23.6719 0.376818 23.3924 0.464378 23.3848C0.551938 23.3771 1.30572 23.446 1.30572 23.446C1.47316 23.2976 1.65711 23.1691 1.85392 23.0632C1.96604 23.0236 2.08535 23.0089 2.20364 23.0202C2.32194 23.0314 2.43641 23.0683 2.53917 23.1283C2.75617 23.2738 3.77263 24.0892 4.06196 24.25C4.35129 24.4108 5.58474 24.2232 7.86892 23.5188C10.1531 22.8143 11.8091 21.6619 13.9981 20.9958C15.7265 20.4712 16.5183 20.165 16.5183 20.165C17.3901 19.3992 19.1832 18.1396 19.1832 18.1396L22.3239 21.3442C22.3239 21.3442 20.8963 22.4506 19.64 23.2278Z" fill="#FFCFC4"></path><path d="M57.2072 46.7315C57.2072 46.7315 59.3962 46.8732 60.6334 46.9612C61.5443 47.0409 62.4503 47.1687 63.3478 47.3441C64.1092 47.459 64.7107 47.5738 64.8249 47.4207C64.9391 47.2675 65.1409 46.1036 64.8249 45.5255C64.5089 44.9474 63.2336 43.4773 62.0496 43.2093C60.8657 42.9413 59.8073 42.9527 58.966 42.6962C58.1247 42.4397 56.9559 41.8654 56.461 41.8003C56.2147 41.7894 55.9687 41.8293 55.7383 41.9176C55.5078 42.0058 55.2978 42.1405 55.121 42.3134C54.743 43.0069 54.4563 43.7469 54.2682 44.5148C54.2149 44.9283 55.0677 46.5899 57.2072 46.7315Z" fill="#4A5061"></path><path d="M38.9946 49.1549C38.9946 49.1549 43.0338 51.8885 44.3244 52.5202C45.6149 53.1519 46.7342 53.1672 47.8382 52.5202C48.8577 51.865 49.8437 51.1583 50.7924 50.403C50.6168 49.5278 50.2419 48.7055 49.6969 48.0006C49.1519 47.2958 48.4518 46.7277 47.6517 46.3409L46.974 46.8348L44.3091 43.6265L38.9946 49.1549Z" fill="#FFCFC4"></path><path d="M17.8965 47.2942C17.8965 47.2942 16.7239 50.1694 16.6364 50.8892C16.5488 51.609 16.3318 52.7422 17.1122 53.7645C17.8927 54.7867 19.0157 56.4942 19.0157 56.4942L23.664 53.6955L22.7998 52.6044L23.8848 51.4788C23.8848 51.4788 25.2439 49.6526 25.2439 49.5645C25.2439 49.4765 23.0359 47.432 21.2732 46.8348C19.5106 46.2375 17.8965 47.2942 17.8965 47.2942Z" fill="#FFCFC4"></path><path d="M21.4065 40.2267C20.1616 43.1211 17.8965 47.2942 17.8965 47.2942C17.8965 47.2942 20.942 47.3478 24.5815 50.1963L23.8848 51.4789C23.8848 51.4789 24.9051 51.766 26.7705 51.3908C26.9964 50.7095 27.1508 50.0063 27.2311 49.2928L32.5266 45.3149C32.5266 45.3149 38.0772 49.0362 38.1952 49.1205C38.4277 49.3871 38.6378 49.6726 38.8233 49.9742C38.8233 49.9742 41.7775 49.1205 43.2204 47.8073C44.6632 46.4941 46.1555 43.8179 46.1555 43.8179L44.0503 42.3324L37.6013 34.3537L36.5848 32.6194C36.5848 32.6194 33.5964 32.0757 29.1499 33.8483C24.7033 35.6209 22.6323 37.6003 21.4065 40.2267Z" fill="#4A5061"></path><path d="M26.7819 51.3908C26.7819 51.3908 25.2211 50.315 24.5929 50.1963L23.8962 51.4789C23.8962 51.4789 24.9051 51.766 26.7819 51.3908Z" fill="#383D4A"></path><path d="M26.5344 41.8308L27.2311 49.2927L32.5266 45.3148L26.5344 41.8308Z" fill="#383D4A"></path><path d="M37.6013 34.3652L36.5848 32.6308C36.5848 32.6308 33.5964 32.0872 29.1498 33.8598C24.7033 35.6324 22.6323 37.6003 21.4065 40.2267C21.4065 40.2267 29.7818 35.6937 38.1571 35.062L37.6013 34.3652Z" fill="#383D4A"></path><path d="M25.4684 11.7459C25.4684 11.7459 21.4178 13.3348 21.2389 13.4879C21.06 13.6411 16.0957 20.0156 16.0957 20.0156C16.503 21.6313 16.8571 23.3197 18.9471 24.4721L19.9826 23.7293C19.9826 23.7293 20.39 28.5763 20.6679 31.4209C20.9458 34.2655 21.3569 36.4899 21.3569 36.4899C21.3569 36.4899 21.0029 38.4617 20.9762 38.7871C21.0595 39.2806 21.2041 39.7616 21.4064 40.219C21.4064 40.219 28.8681 34.7939 36.8627 33.4347L37.6012 34.3574C37.6012 34.3574 38.6215 33.1285 38.4425 32.9217C38.2636 32.715 35.2828 28.3657 35.2828 28.3657L36.3107 21.5471L41.7622 23.5264C43.1019 21.6584 44.0618 19.5429 44.587 17.3012C44.587 17.3012 36.7446 13.1816 36.1355 12.9749C35.5264 12.7682 29.4391 10.7735 29.1574 10.7237C28.8757 10.6739 26.4011 11.3784 25.4684 11.7459Z" fill="#FF9C30"></path><path d="M26.4508 15.5363C27.7718 15.5363 29.6448 13.8556 30.0407 12.7032C30.4367 11.5508 30.1778 11.2139 30.0407 10.9918C29.5496 10.8349 29.2184 10.7353 29.1575 10.7238C28.8796 10.6702 26.4051 11.3785 25.4686 11.7461L24.7681 12.0217C24.7401 12.5092 24.7491 12.9981 24.7948 13.4842C24.909 14.495 25.126 15.5363 26.4508 15.5363Z" fill="#4A5061"></path><path d="M35.2829 28.3735C35.2829 28.3735 31.5749 27.0679 28.811 24.4722C31.1219 25.5135 35.5379 26.6966 35.5379 26.6966L35.2829 28.3735Z" fill="#FA7C28"></path><path d="M16.3547 20.9997C16.7354 22.2938 17.2836 23.5534 18.9473 24.4722L19.9828 23.7295C19.9828 23.7295 20.3635 17.868 20.7442 15.5364C20.7289 15.5364 18.125 18.6222 16.3547 20.9997Z" fill="#FA7C28"></path><path d="M36.2993 21.5549C35.4915 20.6669 34.7436 19.7255 34.0608 18.7371C34.5176 20.502 35.9262 24.0549 35.9262 24.0549L36.2993 21.5549Z" fill="#FA7C28"></path><path d="M25.1868 13.1013C25.1868 13.1013 25.438 14.3034 25.5408 14.6327C25.6436 14.962 26.2527 15.3142 26.9913 14.9658C27.7298 14.6174 29.6561 12.8256 29.6561 11.5507C29.6371 10.6743 29.5557 9.80046 29.4125 8.93579H25.202L25.1868 13.1013Z" fill="#F09A92"></path><path d="M21.7759 10.6778C22.2975 11.5584 21.9929 11.9298 22.8114 12.6878C23.4805 13.2734 24.2244 13.7665 25.0232 14.1541C25.3468 14.3188 26.0587 14.2537 26.7478 13.8593C27.4369 13.465 29.4127 11.5622 29.5193 9.43353C30.3073 8.73673 31.042 7.72216 30.2578 6.1869C30.2274 5.44416 29.1614 -0.137887 25.4458 0.444055C21.7302 1.026 20.6148 2.76416 20.4054 4.37982C20.2889 5.75966 20.431 7.14923 20.8242 8.47639C21.0661 9.24085 21.385 9.97848 21.7759 10.6778Z" fill="#FFCFC4"></path><path d="M20.7669 8.28886C20.7669 8.28886 22.1679 8.45732 22.4763 8.42669C22.7846 8.39606 26.2832 6.64641 26.5421 6.51241C26.6199 6.47433 26.7046 6.45226 26.791 6.44746C26.8774 6.44267 26.9639 6.45525 27.0455 6.48448C27.127 6.51372 27.2019 6.55901 27.2658 6.61771C27.3297 6.67641 27.3814 6.74734 27.4177 6.82635C27.6195 7.20921 28.1791 7.01395 28.2857 7.25132C28.4038 7.57682 28.4918 7.91261 28.5484 8.25441C28.5484 8.25441 29.0014 8.00172 29.0395 7.89835C28.9523 7.43405 28.9732 6.95577 29.1004 6.50092C29.1281 6.35919 29.2013 6.23053 29.3089 6.13479C29.4164 6.03904 29.5523 5.98152 29.6955 5.97107C29.8388 5.96063 29.9815 5.99784 30.1016 6.07698C30.2218 6.15612 30.3128 6.2728 30.3605 6.40904C30.4987 5.00814 30.2772 3.59501 29.7171 2.30482C29.028 0.82699 26.7934 -0.539807 24.0447 0.21442C21.2961 0.968648 20.2378 2.59196 20.0208 4.52921C19.8413 5.83118 20.1042 7.15594 20.7669 8.28886Z" fill="#4A5061"></path><path d="M23.7364 53.4735C23.2263 53.3893 20.1389 53.7301 18.677 56.3258C18.677 56.3258 26.2909 65.9853 28.5751 68.4432C28.7783 68.9493 29.1508 69.368 29.6283 69.6274C30.1058 69.8867 30.6583 69.9702 31.1905 69.8636C32.1574 69.588 32.7513 68.7878 32.6409 68.5236C32.1443 67.685 31.5735 66.8931 30.9354 66.1576C30.3758 65.5603 28.3885 61.5327 27.8442 60.2003C27.2998 58.868 25.9902 55.1811 23.7364 53.4735Z" fill="#FF9C30"></path><path d="M29.3556 68.2213C29.2217 68.0843 29.0452 67.9975 28.8555 67.9752C28.6658 67.9529 28.4742 67.9965 28.3125 68.0988C27.9318 68.3438 26.527 69.5651 26.2262 69.6876C25.9255 69.8101 23.8735 70.4035 23.5081 70.5643C23.1426 70.7251 22.8799 70.8821 22.8076 71.3071C22.7353 71.7321 22.8304 72.0039 23.4852 72.0039H33.2539C33.5204 72.0039 33.4328 71.2382 33.3376 70.7711C33.2425 70.304 33.1701 69.4924 33.0483 69.1631C32.9265 68.8338 32.8123 68.5314 32.6448 68.5237C32.4773 68.5161 31.9443 69.1018 30.9849 68.9908C30.3682 68.9369 29.7907 68.6641 29.3556 68.2213Z" fill="#4A5061"></path><path d="M50.6439 50.5293C50.7578 50.5389 50.8724 50.5225 50.9792 50.4814C51.086 50.4403 51.1822 50.3756 51.2606 50.292C51.6185 49.9819 55.0029 47.7957 56.3163 47.2712C57.6297 46.7467 57.8391 46.7199 57.9076 46.6165C57.9761 46.5132 58.452 44.2237 56.1602 43.9136C53.9103 44.0323 52.319 44.1701 51.4776 44.2964C49.8102 44.5797 47.4537 45.1923 47.5222 46.4289C47.9752 46.4979 50.3203 47.9336 50.6439 50.5293Z" fill="#FF9C30"></path><g clip-path="url(#clip1_2202_7079)"><path d="M42 65.9985C42 67.5902 41.3677 69.1167 40.2422 70.2422C39.1167 71.3677 37.5902 72 35.9985 72C34.4074 71.9992 32.8816 71.3666 31.7568 70.2412C30.6319 69.1158 30 67.5897 30 65.9985C30 65.2108 30.1552 64.4308 30.4566 63.703C30.7581 62.9752 31.1999 62.3139 31.7569 61.7569C32.3139 61.1999 32.9752 60.7581 33.703 60.4566C34.4308 60.1552 35.2108 60 35.9985 60C37.5897 60 39.1158 60.6319 40.2412 61.7568C41.3666 62.8816 41.9992 64.4074 42 65.9985Z" fill="#9E9EA6"></path><path d="M40.1121 62.4751V64.6655L41.4098 66.4271L41.9971 65.6285C41.9352 64.612 41.6159 63.6279 41.0692 62.7687L40.1121 62.4751Z" fill="#3A3A51"></path><path d="M40.6317 69.8154V68.8201L38.5441 69.4866L37.2639 71.2659L38.2094 71.583C39.1522 71.2061 39.9851 70.5983 40.6317 69.8154Z" fill="#3A3A51"></path><path d="M36.0016 63.6174L33.7349 65.2617L34.601 67.9247H37.3992L38.2653 65.2617L36.0016 63.6174Z" fill="#3A3A51"></path><path d="M35.9985 61.6795L38.0802 60.9924L37.493 60.182C37.0015 60.0579 36.4966 59.9947 35.9897 59.9941C35.4838 59.995 34.9798 60.0581 34.4893 60.182L33.9021 60.9924L35.9985 61.6795Z" fill="#3A3A51"></path><path d="M34.7447 71.2688L33.4645 69.4866L31.377 68.8201V69.8154C32.0264 70.5976 32.8625 71.2035 33.8081 71.5771L34.7447 71.2688Z" fill="#3A3A51"></path><path d="M30.6019 66.433L31.8996 64.6713V62.481L30.9513 62.7746C30.4046 63.6338 30.0853 64.6179 30.0234 65.6344L30.6019 66.433Z" fill="#3A3A51"></path><path d="M40.0886 62.3548L40.9694 62.6337C40.1819 61.4714 39.0122 60.6216 37.6633 60.2319L38.2006 60.9836C38.918 61.3052 39.5608 61.7721 40.0886 62.3548Z" fill="#F7F7F7"></path><path d="M31.9084 62.3577C32.4365 61.7734 33.0805 61.3055 33.7993 60.9836L34.3366 60.2319C32.9872 60.6205 31.8171 61.4705 31.0305 62.6337L31.9084 62.3577Z" fill="#F7F7F7"></path><path d="M40.0268 64.7478L38.3708 65.2822L37.49 67.9687L38.5147 69.381L40.6317 68.7028C41.0124 68.0376 41.2513 67.3009 41.3334 66.5388L40.0268 64.7478Z" fill="#F7F7F7"></path><path d="M39.9945 64.645V62.4224C39.4791 61.8582 38.8536 61.4055 38.1565 61.0923L36.0454 61.7911V63.5293L38.3297 65.1911L39.9945 64.645Z" fill="#F7F7F7"></path><path d="M36.0779 71.4744C35.6599 71.474 35.2429 71.4328 34.833 71.3511L33.9521 71.6447C34.6107 71.8845 35.3066 72.0057 36.0074 72.0029C36.7083 72.0057 37.4041 71.8844 38.0627 71.6447L37.1819 71.3511C36.8206 71.4386 36.4496 71.48 36.0779 71.4744Z" fill="#F7F7F7"></path><path d="M42.0001 65.9985C42.0001 65.9339 42.0001 65.8664 42.0001 65.8018L41.454 66.5417C41.3686 67.3234 41.1227 68.0791 40.7317 68.7614V69.6804C41.5516 68.628 41.9979 67.3326 42.0001 65.9985Z" fill="#F7F7F7"></path><path d="M33.4764 69.381L34.5041 67.9717L33.6232 65.2881L31.9643 64.7478L30.6489 66.5388C30.7322 67.3006 30.9711 68.0371 31.3507 68.7028L33.4764 69.381Z" fill="#F7F7F7"></path><path d="M34.8622 71.2483C35.6128 71.4038 36.3872 71.4038 37.1377 71.2483L38.4355 69.4426L37.4137 68.0303H34.5921L33.5645 69.4426L34.8622 71.2483Z" fill="#F7F7F7"></path><path d="M30.0029 65.79C30.0029 65.8546 30.0029 65.9222 30.0029 65.9868C30.0048 67.3213 30.4499 68.6175 31.2684 69.6716V68.7526C30.8765 68.0699 30.6314 67.3128 30.549 66.5299L30.0029 65.79Z" fill="#F7F7F7"></path><path d="M31.9907 62.4224V64.645L33.6438 65.1853L35.9281 63.5234V61.7823L33.817 61.0835C33.1242 61.4021 32.503 61.8575 31.9907 62.4224Z" fill="#F7F7F7"></path></g></g><defs><clipPath id="clip0_2202_7079"><rect width="65" height="72" fill="white"></rect></clipPath><clipPath id="clip1_2202_7079"><rect width="12" height="12" fill="white" transform="translate(30 60)"></rect></clipPath></defs></svg>