 <svg
                                            xmlns="http://www.w3.org/2000/svg" width="21" height="19"
                                            viewBox="0 0 21 19" fill="none">
                                            <path
                                                d="M3.11825 4.52979C3.01958 4.52988 2.92189 4.54945 2.8308 4.58737C2.7397 4.62528 2.65697 4.68079 2.58737 4.75074C2.51777 4.82068 2.46266 4.90368 2.42519 4.99496C2.38772 5.08624 2.36864 5.18402 2.36902 5.28269C2.36922 5.48134 2.44821 5.67179 2.58868 5.81225C2.72914 5.95271 2.91961 6.03171 3.11825 6.03191H16.1391C16.9517 6.03191 17.5083 6.5801 17.5083 7.19078V8.50099C17.5079 8.59998 17.5272 8.69805 17.5649 8.78958C17.6026 8.8811 17.658 8.96425 17.728 9.03425C17.798 9.10424 17.8811 9.15969 17.9727 9.19739C18.0642 9.23508 18.1623 9.25429 18.2612 9.2539C18.3599 9.2538 18.4576 9.23424 18.5487 9.19632C18.6398 9.1584 18.7225 9.10288 18.7921 9.03293C18.8617 8.96299 18.9168 8.87999 18.9543 8.78871C18.9918 8.69743 19.0108 8.59967 19.0105 8.50099V7.19078C19.0105 5.6859 17.6764 4.52979 16.1391 4.52979H3.11825Z"
                                                fill="#fff"></path>
                                            <path
                                                d="M16.1575 7.75177C15.0607 7.75177 14.1571 8.65906 14.1571 9.75583V11.2579C14.1571 12.3547 15.0607 13.262 16.1575 13.262H18.2427C19.3395 13.262 20.2468 12.3547 20.2468 11.2579V9.75583C20.2468 8.65906 19.3395 7.75177 18.2427 7.75177H16.1575ZM16.1575 9.25389H18.2427C18.5289 9.25389 18.7447 9.46966 18.7447 9.75583V11.2579C18.7447 11.5441 18.5289 11.7599 18.2427 11.7599H16.1575C15.8713 11.7599 15.6555 11.5441 15.6555 11.2579V9.75583C15.6555 9.46966 15.8713 9.25389 16.1575 9.25389Z"
                                                fill="#fff"></path>
                                            <path
                                                d="M9.73015 18.4992C9.9288 18.499 10.1193 18.42 10.2597 18.2796C10.4002 18.1391 10.4792 17.9486 10.4794 17.75L10.4794 13.8157C10.4792 13.617 10.4002 13.4266 10.2597 13.2861C10.1193 13.1457 9.9288 13.0667 9.73016 13.0665C9.53151 13.0667 9.34106 13.1457 9.2006 13.2861C9.06013 13.4266 8.98114 13.617 8.98094 13.8157L8.98094 17.75C8.98114 17.9486 9.06013 18.1391 9.2006 18.2796C9.34106 18.42 9.53151 18.499 9.73015 18.4992Z"
                                                fill="#fff"></path>
                                            <path
                                                d="M9.7302 18.4992C9.82901 18.4991 9.92683 18.4795 10.018 18.4415C10.1092 18.4035 10.192 18.3479 10.2617 18.2778L12.2399 16.2885C12.3801 16.1479 12.4589 15.9574 12.4589 15.7589C12.4589 15.5603 12.3801 15.3698 12.2399 15.2292C12.1702 15.1592 12.0874 15.1037 11.9962 15.0658C11.905 15.0279 11.8072 15.0084 11.7084 15.0084C11.6097 15.0084 11.5119 15.0279 11.4207 15.0658C11.3295 15.1037 11.2466 15.1592 11.177 15.2292L9.19874 17.2185C9.12899 17.2885 9.07376 17.3715 9.03619 17.4628C8.99861 17.5542 8.97945 17.652 8.9798 17.7508C8.98015 17.8495 9.00001 17.9473 9.03823 18.0383C9.07645 18.1294 9.13227 18.212 9.20251 18.2815C9.34285 18.4208 9.53244 18.499 9.7302 18.4992Z"
                                                fill="#fff"></path>
                                            <path
                                                d="M9.7264 18.4992C9.82495 18.4996 9.92262 18.4806 10.0138 18.4432C10.105 18.4059 10.1879 18.3509 10.2579 18.2814C10.3281 18.212 10.3839 18.1294 10.4222 18.0383C10.4604 17.9473 10.4802 17.8495 10.4806 17.7508C10.4809 17.652 10.4618 17.5542 10.4242 17.4628C10.3866 17.3715 10.3314 17.2885 10.2617 17.2185L8.28341 15.2292C8.21373 15.1592 8.13092 15.1037 8.03971 15.0658C7.94851 15.0279 7.85071 15.0084 7.75195 15.0084C7.65319 15.0084 7.55539 15.0279 7.46419 15.0658C7.37299 15.1037 7.29017 15.1592 7.22049 15.2292C7.07976 15.3693 7.00032 15.5595 6.99961 15.7581C6.9989 15.9566 7.07698 16.1474 7.21671 16.2885L9.19862 18.2778C9.33835 18.4184 9.52812 18.4981 9.7264 18.4992Z"
                                                fill="#fff"></path>
                                            <path
                                                d="M0.996056 2.62171C0.797411 2.6219 0.606961 2.70089 0.466496 2.84135C0.326031 2.98181 0.247024 3.17227 0.246826 3.37091V13.8747C0.246826 15.3796 1.58089 16.532 3.11823 16.532H5.24776C5.4464 16.5318 5.63686 16.4528 5.77732 16.3123C5.91778 16.1719 5.99678 15.9814 5.99697 15.7828C5.99678 15.5841 5.91778 15.3937 5.77732 15.2532C5.63686 15.1128 5.4464 15.0338 5.24776 15.0336H3.11823C2.30563 15.0336 1.74896 14.4854 1.74896 13.8747V3.37091C1.74886 3.27224 1.7293 3.17456 1.69138 3.08347C1.65346 2.99237 1.59795 2.90965 1.52801 2.84005C1.45807 2.77045 1.37507 2.71533 1.28379 2.67786C1.19251 2.6404 1.09473 2.62132 0.996056 2.62171ZM18.2612 11.7599C18.1622 11.7595 18.0642 11.7787 17.9726 11.8164C17.8811 11.8541 17.798 11.9096 17.728 11.9795C17.658 12.0495 17.6025 12.1327 17.5648 12.2242C17.5271 12.3157 17.5079 12.4138 17.5083 12.5128V13.8747C17.5083 14.4854 16.9517 15.0336 16.1391 15.0336H14.2457C14.0471 15.0338 13.8566 15.1128 13.7162 15.2532C13.5757 15.3937 13.4967 15.5841 13.4965 15.7828C13.4967 15.9814 13.5757 16.1719 13.7162 16.3123C13.8566 16.4528 14.0471 16.5318 14.2457 16.532H16.1391C17.6764 16.532 19.0104 15.3796 19.0104 13.8747V12.5128C19.0108 12.4141 18.9917 12.3164 18.9543 12.2251C18.9168 12.1338 18.8617 12.0508 18.7921 11.9809C18.7225 11.9109 18.6398 11.8554 18.5487 11.8175C18.4576 11.7796 18.3599 11.76 18.2612 11.7599Z"
                                                fill="#fff"></path>
                                            <path
                                                d="M3.11823 0.713562C1.58197 0.713543 0.246826 1.86619 0.246826 3.37088C0.246826 4.87556 1.58197 6.03188 3.11823 6.03188C3.31687 6.03168 3.50732 5.95269 3.64778 5.81223C3.78824 5.67177 3.86723 5.48131 3.86743 5.28267C3.86782 5.184 3.84873 5.08622 3.81126 4.99494C3.7738 4.90365 3.71869 4.82067 3.64909 4.75073C3.57949 4.68078 3.49677 4.62526 3.40567 4.58734C3.31458 4.54942 3.2169 4.52986 3.11823 4.52976C2.31158 4.52976 1.74896 3.97492 1.74896 3.37088C1.74896 2.76683 2.31158 2.21197 3.11823 2.21199H14.4598C14.9819 2.21199 15.3898 2.61991 15.3898 3.14205V5.28267C15.39 5.48131 15.4691 5.67177 15.6095 5.81223C15.75 5.95269 15.9404 6.03168 16.1391 6.03188C16.2377 6.03227 16.3355 6.01318 16.4268 5.97571C16.5181 5.93825 16.6011 5.88314 16.671 5.81354C16.7409 5.74394 16.7965 5.66122 16.8344 5.57012C16.8723 5.47903 16.8919 5.38134 16.892 5.28267V3.14205C16.892 1.8093 15.7925 0.713562 14.4598 0.713562H3.11823Z"
                                                fill="#fff"></path>
                                        </svg>