<?xml version="1.0" encoding="UTF-8"?>
<!DOCTYPE svg PUBLIC "-//W3C//DTD SVG 1.1//EN" "http://www.w3.org/Graphics/SVG/1.1/DTD/svg11.dtd">
<!-- Creator: CorelDRAW -->
<svg xmlns="http://www.w3.org/2000/svg" xml:space="preserve" width="1020px" height="340px" version="1.1" style="shape-rendering:geometricPrecision; text-rendering:geometricPrecision; image-rendering:optimizeQuality; fill-rule:evenodd; clip-rule:evenodd"
viewBox="0 0 1020 340"
 xmlns:xlink="http://www.w3.org/1999/xlink"
 xmlns:xodm="http://www.corel.com/coreldraw/odm/2003">
 <defs>
  <style type="text/css">
   <![CDATA[
    .fil24 {fill:black}
    .fil25 {fill:black}
    .fil0 {fill:#010101}
    .fil2 {fill:#020202}
    .fil10 {fill:#040404}
    .fil16 {fill:#050505}
    .fil18 {fill:#060606}
    .fil1 {fill:#121212}
    .fil15 {fill:#171717}
    .fil13 {fill:#191919}
    .fil14 {fill:#1B1B1B}
    .fil8 {fill:lightgrey}
    .fil3 {fill:#EBEBEB}
    .fil6 {fill:#EDEDED}
    .fil5 {fill:#EFEFEF}
    .fil7 {fill:#F0F0F0}
    .fil12 {fill:#F2F2F2}
    .fil4 {fill:#F4F4F4}
    .fil11 {fill:whitesmoke}
    .fil19 {fill:#F6F6F6}
    .fil17 {fill:#F7F7F7}
    .fil9 {fill:#F8F8F8}
    .fil22 {fill:red}
    .fil23 {fill:red}
    .fil20 {fill:black;fill-rule:nonzero}
    .fil21 {fill:red;fill-rule:nonzero}
   ]]>
  </style>
 </defs>
 <g id="Layer_x0020_1">
  <metadata id="CorelCorpID_0Corel-Layer"/>
  <g id="_1778504754192">
   <g>
    <path class="fil0" d="M415.55 212.69c-0.16,0.58 -0.25,1.37 -0.28,2.3 -2.04,-0.27 -5.51,0.12 -7.39,1.06 -0.18,-1.17 -0.39,-2.35 -0.62,-3.54 -0.68,-3.44 -2.56,-10.83 -2.3,-13.96l4.51 -1.48c-1.85,2.2 -2.24,3.37 -1.35,6.37 0.51,-0.96 0.13,-2.53 1.22,-3.41 0.13,-0.11 6.97,-3.31 7.66,-7.08 0.74,-0.36 0.73,-0.71 0.83,-1.42l-0.9 1.45c-1.09,0.68 -2.74,3.33 -4.67,3.82 1.54,-2.58 4.34,-5.08 4.84,-8.31 -0.66,1.67 -2.47,4.17 -3.89,5.18l-0.23 -0.21c0.84,-1.65 2.21,-4.02 2.25,-5.87 -1.98,2.74 -0.16,1.78 -4.44,5.97 -3,2.96 -5.8,2.22 -8.23,3.1 0.08,2.04 2.8,11.52 3.49,14.45 0.41,1.76 0.76,3.52 1.1,5.28 -0.47,0.16 -1.16,0.34 -2.51,0.58 -0.58,-3.16 -1.42,-6.49 -3.04,-10.76 -1.35,-3.59 -1.98,-9.05 -1.77,-12.85 1,-0.12 6.98,2.22 11.02,-4.34 2.88,-4.68 2.54,-7.48 2.34,-12.77 -0.25,-6.92 0.57,-13.14 2.27,-19.8 0.38,-1.48 1.82,-4.74 1.98,-5.73l0.53 -0.49c-0.74,-0.23 -0.04,-0.49 -0.96,0.1 -3.88,0.93 -3.89,1.8 -10.01,2.41 -16,1.59 -30.8,-7.27 -30.19,-24.88 0.1,-2.92 1.13,-5.85 1.61,-8.74 0.41,-2.37 0.65,-6.19 2.56,-7.91l0.41 0.28c-0.88,0.83 -1.4,3.41 -1.13,4.67l1.58 -3.81c0.15,-0.13 2.47,-3.44 2.8,-3.89 3.54,-5.02 12.63,-8 15.05,-7.01 -1.66,1.2 -6.79,2.36 -7.75,4.93 2.31,0.01 5.89,-1.82 8.3,-2.44 12.19,-3.17 17.42,-0.89 27.4,-1.8 11.04,-1 22.89,-8.13 18.52,-20.9 -2.11,-6.18 -7.74,-6.31 -12.15,-2.21 -6.86,6.38 -18.32,13.8 -28.07,13.84 -4.06,0.01 -11.54,-1.06 -14.03,-4.74 0.13,-0.34 -0.22,-0.39 0.36,-0.17 2.29,0.78 6.95,5.15 15.67,3.23 0.91,-0.2 1.73,-0.75 2.29,-0.85 -4.63,0.32 -7.47,0.25 -11.83,-1.22 -2.75,-0.94 -7.56,-3.29 -8,-6.46 0.83,0.46 0.77,0.86 2.03,1.45 3.48,1.64 8.82,3.19 12.6,3.35 1.44,0.06 5.4,0.07 6.4,-0.8 -1.93,-0.29 -3.31,-0.06 -5.61,-0.52 -5.13,-1.05 -9.34,-2.65 -12.97,-6.8 -2.4,-2.73 -4.2,-5.61 -5.27,-9.13 -0.86,-2.86 -1.32,-8.8 0.63,-11.19 0.36,2.04 0.02,4.52 0.44,6.98 0.33,1.87 1.03,4.53 2.31,5.82 -0.3,-2.82 -1.53,-4.73 -1.26,-9.92 0.14,-2.8 1.15,-5.08 2.51,-7.48 2.47,-4.34 8.78,-8.42 14.02,-6.39 -3.69,0.81 -4.37,-0.31 -8.05,4.73 -2,2.73 -2.58,6.64 -1.36,9.87 0.45,-0.96 -0.16,-3.43 1.07,-5.82 0.33,3.03 -0.09,3.33 1.47,6.23 0.57,1.05 2.58,3.62 3.74,3.44 0.69,0.85 1.4,1.24 2.52,1.41 3.44,2.18 14.62,-2.01 19.65,-1.93 10.41,0.14 14.15,4.38 15.76,4.83 -1.42,-3.33 -9.86,-5.9 -13.45,-6.35 -5.07,-0.63 -9.01,0.94 -13.78,1.84 -1.55,0.28 -3.42,0.3 -4.74,0.62 -0.57,-0.36 -1.16,-0.23 -1.97,-0.63 -0.83,-0.41 -0.85,-0.75 -1.71,-1.08 -0.38,-0.96 -2.53,-2.11 -3.29,-4.47 -0.71,-2.23 -0.24,-4.21 0.7,-6.25l0.22 0.16c-0.13,2.08 -0.69,3.14 0.88,5.06 3.25,3.97 11.55,3.07 15.9,2.39 3.96,-0.63 7.49,-0.32 11.29,0.65 1.88,0.49 7.35,2.42 8.83,3.7 0.54,0.43 0.34,0.36 1.19,0.41 -0.29,-0.75 -0.19,-0.59 -0.82,-0.93 -3.61,-3.44 -7.79,-4.81 -12.61,-6.04 -6.15,-1.58 -11.74,0.34 -17.6,0.3 7.87,-4.2 13.9,-3.95 22.21,-1.12 4.75,1.6 8.87,4.56 11.92,8.46 1.13,1.45 1.86,2.56 3.13,3.89 -1,-3.25 -3.45,-7.5 -6.03,-9.8 -0.66,-0.6 -2.38,-1.81 -2.73,-2.21 4.21,1.18 7.62,5.44 9.52,9.28 2.87,5.79 3.47,10.42 3.92,16.82 0.75,10.91 -7.3,17.87 -16.91,20.85 -11.46,3.57 -23.93,0.98 -35.61,5.18 -9.31,3.37 -17.58,12.47 -13.16,22.84 1.96,4.58 6.25,6.79 10.95,7.66 5.84,1.08 11.1,-0.08 16.35,-2.69 4.22,-2.09 7.98,-5.09 11.72,-7.89 1.6,-1.2 4.54,-2.86 5.75,-4.01 7.44,-7.07 10.45,-7.77 21.51,-9.12 11.19,-1.35 24.1,-9.72 31.72,-18.01 0.93,-1.02 3.6,-5.2 3.92,-5.4 -2.36,0.73 -3.28,1.47 -5.89,0.16 -1.64,-0.82 -3.35,-2.8 -2.92,-4.85 0.27,0.46 0.83,3.58 3.92,2.88 1.71,-0.38 2.97,-2.07 3.46,-3.66 0.25,-0.8 0.57,-5.04 0.36,-5.77 -0.02,-0.03 -3.02,-4.36 -3.04,-4.38 -2.05,0.71 -4.2,3.19 -6.39,3.95 1.31,-2.23 4.02,-3.55 6.02,-5.08l-0.29 -1.41c-1.76,-0.35 -4.46,1.98 -6.3,2.28 0.41,-1.45 4.81,-2.48 6.1,-3.26 0.15,-1.57 -0.09,-1.5 0.33,-3.31 0.55,-2.4 -3.63,-3.58 2.78,-7.86 4.07,-2.71 2.01,-1.31 2.99,-5.1 0.48,-1.82 2.2,-3.73 3.85,-4.35 -4.68,0.66 -4.07,5.34 -5.55,6.7 -0.56,-1.15 -0.09,-3.16 0.38,-4.35 0.66,-1.67 1.39,-2.01 2.48,-3.18 -1.65,-0.59 -3.47,-0.89 -3.48,-3.35 1.73,1.12 2.47,1.9 4.75,0.6 -0.42,-1.44 -1.76,-3.13 -0.83,-4.7 0.76,0.96 0.94,2.26 1.98,3.22l0.56 0.36 -0.28 -0.38c-0.84,-1.94 -1.81,-6.64 0.66,-7.8 -0.18,2.04 -0.5,3.32 0.4,5.35 0.56,1.25 -0.76,-2.28 0.47,-2 0.4,0.56 1.79,1.62 2.53,1.71 -0.28,-0.65 0.73,0.29 0,0 -2.21,-2.86 -3.01,-0.79 -2.44,-4.81 0.37,-2.61 1.32,-5.51 3.87,-6.52 -1.58,2.54 -2.29,6.28 0.09,8.58 -0.26,-4.25 2.94,-9.62 7,-11.15 -0.01,0.63 -2.61,4.68 -3.06,6.7 -0.84,3.77 -0.04,5.4 1.71,8.57 0.1,-0.55 -0.63,-4.53 -0.56,-6.13 0.07,-1.71 0.55,-3.65 1.26,-5.2 0.56,-1.19 5.23,-7.32 6.04,-7.73 0.21,1.76 -0.64,3.49 -0.73,5.18 1.95,-0.85 4.04,-2.53 6.51,-3.46 1.77,-0.66 7.14,-2.3 8.7,-1.49l-3.56 1.84c-0.7,0.34 -1.31,0.88 -1.71,1.54 0.76,-0.18 1.84,-0.69 2.35,-1.2 1.3,-0.13 2.61,-0.69 3.91,-0.96 1.57,-0.33 2.78,-0.25 4.26,-0.41l0.11 0.54c-1.54,0.23 -5.33,1.56 -6.49,2.41 1.64,-0.03 5.52,-1.15 7.5,-1.47 1.94,-0.32 5.97,-0.97 7.81,-0.6 -1.09,1.28 -5.4,2.16 -6.04,3.27 1.81,0.41 8.18,0.54 9.5,1.88 -1.99,0.8 -4.31,0.18 -6.4,0.54 5.09,0.39 11.51,5.37 17.17,1 -0.81,3.95 -5.56,4.2 -8.64,4.65 0.96,0.1 4.82,1.44 6.23,1.78 3.09,0.76 4.35,0.52 7.26,0.67 -1.6,2.08 -7.32,2.85 -9.86,2.25 2.45,1.41 5.63,2.82 8.4,3.93 4.17,1.68 6.14,1.98 9.78,-0.63 -0.18,1.42 -1.97,3.24 -3.27,4 -2.65,1.58 -3.64,1.05 -6.27,1.47l13.14 5.48c-2.18,0.5 -4.16,0.66 -6.35,0.29l-1.36 -0.38 1.1 0.69c2.77,1.99 6.56,6.17 6.99,9.89 -0.17,-0.14 -4.64,-7.09 -7.98,-7.63 3.55,5.01 5.34,9.92 8.13,13.76 1.46,1.97 2.36,2.25 3.78,3.55 -3.64,0.39 -6.75,-2.91 -8,-3.67 0.34,1.09 1.29,2.16 1.83,3.26 1.16,2.32 3.74,9.44 4.37,11.69 -1.53,-0.76 -3.9,-5.74 -5.26,-6.76 0.34,2.58 4.23,10.59 6.34,13.2 2.3,2.85 2.22,1.89 3.49,2.95 -1.49,0.17 -4.05,-0.79 -5.36,-1.53 -1.85,-1.05 -2.62,-2.3 -4.11,-3.51 0.8,3.6 6.38,11.32 5.57,19.23 -0.13,1.25 -0.63,5.14 -1.3,5.99 0.04,-3.7 0.43,-4.61 -1.09,-8.32 -0.55,-1.33 -2.95,-5.47 -3.77,-6.53 0.13,1.69 1.22,4.84 1.51,9.74 0.11,2.08 0.11,7.06 -0.85,8.64 -0.38,-1.61 -0.43,-3.37 -0.87,-5.01 -0.45,-1.63 -0.83,-3.2 -1.25,-4.81 -0.83,3.51 0.1,13.36 2.23,16.4 3.03,4.31 7.59,1.26 7.46,-2.15 -0.08,-2.01 -0.79,-1.84 -2.01,-2.52 3.85,-1.42 4.36,7.66 -2.92,8.78 -5.71,0.87 -7.56,-4.47 -8.81,-8.89 -0.33,1.07 -0.39,4.04 -0.78,5.78 -0.79,3.59 -2.54,8.42 -2.33,11.31 0.13,1.81 1.17,4.2 3.27,3.93 -2.36,0.52 -4.2,-1.08 -5.2,-3.09 -1.23,-2.5 -1.06,-5.61 -1.22,-8.34 0.21,-0.56 0.24,-0.04 -0.01,-0.89l-0.31 0.86c-0.08,2.07 -2.1,5.83 -3.24,7.51 -1.88,2.79 -3.89,5.22 -3.11,7.61 0.5,-0.94 4.8,-6.89 5.38,-7.36 0.34,0.9 1.04,11.49 2.42,16.59 0.99,3.72 1.48,2.61 1.28,7.01 -0.11,2.64 1.5,3.97 3.46,5.42 2.12,1.56 5.88,-1.32 6.32,-1.47 2.23,-0.81 3.16,1.08 6.35,1.82 2.15,0.5 3.21,2.78 4.09,4.61 1.99,4.08 -0.18,5.52 -0.5,6.71 0.13,0.11 0.4,0.26 0.78,0.44 -0.67,0.35 -2.01,1.05 -2.36,1.62 -0.18,0.3 -0.38,0.7 -1.33,0.98 -0.94,0.27 -2.66,0.41 -3.72,0.4 -1.07,-0.02 -1.48,-0.21 -1.91,-0.14 -0.44,0.06 -0.89,0.38 -1.52,0.61 -0.63,0.24 -1.45,0.38 -2.25,0.29 -0.81,-0.07 -1.59,-0.41 -2.24,-0.48 -0.65,-0.08 -1.17,0.1 -2.11,0.25 -2.34,0.39 -4.33,0.42 -6.49,-0.68 -0.77,-0.4 -1.58,-0.91 -2.98,-1.07 -1.18,-1.4 -2.16,-1.09 -4.19,-5.59 -1.63,-3.6 -2.89,-2.35 -5.12,-4.8 -2.12,-2.31 -0.83,-4.99 -0.88,-7.91 -0.03,-1.67 -1.77,-7.02 -2.87,-7.8l-0.49 -0.86 0.49 -0.78c2.14,-0.46 5.39,-5.01 6.68,-6.64 2.1,-2.68 2.77,-6.19 2.75,-9.67 -0.73,2.38 -2.61,6.7 -4.25,8.54 -1.1,1.24 -1.81,2.53 -2.85,3.83 -0.41,0.49 -3.03,3.58 -3.09,3.72l-1.11 0.67 -0.01 -0.98c0.65,-0.9 2.22,-6.44 2,-7.64 -1.19,2.71 -2.67,4.56 -4.15,7 -0.67,1.11 -1.58,2.21 -2.32,3.42 -0.72,1.18 -1.39,2.75 -2.05,3.84 -1.12,-3.77 0.98,-6.4 0.89,-8.96 -1.68,3.08 -3.46,2.52 -5.68,3.94 -0.72,2.48 0.72,8.67 1.72,11.14 1.7,4.23 -1.48,4.91 2.19,10 1.05,1.45 1.91,2.05 3.76,2.14 1.96,0.1 2.58,-1.92 4.71,-0.98 3.17,1.44 3.72,5.56 5.56,7.06l0.07 -0.01c0.07,0.33 0.22,0.73 0.33,1.23 0.22,1.05 0.35,4 -0.28,4.95l-6.61 0.52c1.24,-2.64 0.13,-5.06 -1.36,-7.54 -1.48,-2.45 -3.32,-5.02 -6.12,-2.24 0.3,0.65 2.03,1.79 2.71,2.54 1.45,1.57 1.34,2.04 1.97,4 0.53,-1.17 -0.16,-2.42 -0.01,-3.77 2.29,1.74 1.77,5.35 2.09,7.1 -1.13,0.13 -2.87,0.35 -4.86,0.6 0.89,-4.74 -3.22,-9.63 -4.41,-9.79 -1.16,0.15 -2.26,1.14 -2.95,2.05 1.64,2.12 2.9,-0.04 4.49,6.8 0.26,-3.09 -0.26,-3.06 -0.81,-5.67 2.78,2.14 2.57,4.81 2.48,6.75 -1.69,0.23 -3.48,0.47 -5.17,0.74 0.38,-3.11 -1.56,-8.07 -4.53,-8.16 -1.8,0.96 -2.21,3.32 -1.9,5.2l1.13 -2.29c1.55,2.41 1.95,0.29 2.65,4.75 0.15,-2.83 0.87,-1.64 -0.66,-4.52 1.59,0.31 2.61,3.65 2.4,5.15 -3.12,0.51 -5.7,1.04 -6.23,1.51 -0.23,0.23 -0.45,0.52 -0.62,0.87 -0.42,-0.39 -0.73,-0.87 -1.2,-1.3l0.64 -0.24c-0.42,-0.72 -0.91,-0.94 -1.36,-1.7 -1.11,-1.9 -1.03,-4.02 -1.62,-5.79 -0.71,-2.18 -3.04,-0.63 -4.8,-5.22 -0.79,-2.06 -0.33,-3.49 0.06,-5.5 0.67,-3.58 -1.28,-7.63 -2.63,-10.91 -1.34,-3.22 -2.71,-7.15 -4.2,-10.23 -4.57,0.67 -19.21,1.02 -22.85,-1.46 -0.46,-0.34 -2.02,-1.19 -2.67,-1.58 0.4,-0.86 0.38,-0.24 -0.05,-0.65l0.47 -0.1c1.85,-0.28 5.48,2.92 8.88,2.08 -0.76,-0.57 -7.59,-2.94 -9.05,-3.35 -2.05,-0.57 -8.21,-2.09 -10.08,-1.83 1.3,0.3 7.1,1.7 7.93,2.34 0.25,0.62 0.37,0.14 -0.13,0.52l-0.17 0.2 -0.5 -0.43c-0.17,0.6 -0.63,-0.2 0.1,0.75l-0.62 0.05c-1.87,0.15 -8.51,-2.32 -12.87,0.71 2.57,-0.31 4.22,-0.94 7.03,-0.75 1.21,0.08 5.3,0.94 5.93,0.83 0.78,0.88 0.49,0.34 1.25,0.81l-3.41 0.17c-1.6,-0.95 -3.4,-0.52 -5.09,-0.1l1.76 0.07 -0.58 0.59c-5.53,0.93 -9.53,2.51 -13.36,6.49 1.61,-0.2 6.19,-4.83 15.92,-4.71 4.39,0.05 14.44,0.96 16.87,0.86 0.38,4.85 0.77,14.14 -2.77,17.76 -2.18,2.22 -3.41,3.44 -5.93,5.28 -1.46,1.07 -5.7,3.84 -6.67,4.9 -0.18,2.39 2.51,6.09 4.03,7.9 2.13,2.49 3.87,4.57 7.1,2.52 1.49,-0.93 2.2,-1.63 3.91,-0.74 1.95,1.02 2.88,-0.02 4.64,0.7 1.68,0.7 2.86,2.61 3.79,4.5 -1.01,-0.71 -2,-1.11 -3.17,-1.44 -0.98,-1.4 -2.2,-2.32 -3.23,-1.59 0.44,0.44 0.9,0.79 1.37,1.16 -0.82,-0.11 -1.23,0.04 -2.11,0.11 -1.52,-1.57 -3.44,-2.09 -4.4,-0.32 0.29,0.2 0.55,0.37 0.79,0.49l-2.9 0.33c-0.74,-0.2 -1.4,-0.11 -1.94,0.14 -4.13,-0.73 -7.13,0.17 -11.84,0.83l-0.17 0.02 -6.08 -7.64c0.92,3.45 5.34,6.99 6.07,7.64 -0.7,0.11 -1.34,0.28 -1.93,0.49l-2.55 -2.71c-0.42,-0.81 -4.08,-5.19 -4.73,-5.54 -0.38,-1.47 -2.5,-3.65 -3.2,-5.97l2.04 -1.64c0.61,-0.31 1.01,-0.51 1.21,-1.11 0.84,-0.58 1.89,-1.57 2.01,-2.56 2.29,-1.87 2.41,-8.43 1.27,-11.08 -0.29,-0.83 -1.17,-2.25 -2.02,-2.34 0.21,0.41 0.51,0.79 0.64,1.3 0.18,0.72 -0.02,0.95 0.25,1.78 0.84,3.31 0.29,5.8 -0.75,8.87l-3.42 4.63c-0.67,0.16 -1.25,0.62 -1.64,1.14l-1.43 0.52c0.6,1.71 3.49,6.14 4.77,7.28 0.61,1.11 2.05,2.96 3.07,3.56 0.41,0.77 2.13,2.57 3.82,4.13 -0.81,0.37 -1.51,0.83 -2.1,1.37 -1.46,-1.52 -2.88,-2.89 -4.31,-4.31 -1.36,-1.35 -3.13,-3.82 -4.19,-4.76 0.11,3.01 1.8,3.87 2.93,5.78 -3.16,-1.09 -6.57,-8.38 -6.83,-11.85l-0.5 -3.66c0.92,-0.07 1.53,0.02 2.2,-0.56 3.5,-0.43 5.92,-5.08 5.68,-8.45 -0.29,-4.34 -2.8,-5.1 -5.54,-7.51 -0.36,-0.31 -0.45,-0.55 -0.85,-0.83 -1.2,1.84 -2.25,4.52 -3.48,6.52 -4.16,6.8 -7.52,12.28 -14.58,17.08 -2.12,1.45 -4.31,2.83 -6.43,4.3 -2.43,1.68 -4.51,2.32 -5.48,5.21 -0.81,2.39 -1.01,6.61 -0.58,10.51 -0.87,0.14 -1.79,0.28 -2.68,0.44 -0.2,-2.25 -0.04,-4.04 -0.46,-7.84 -0.93,5.59 -0.8,6.16 -0.58,8.03l-0.42 0.09c-0.36,-0.13 -0.74,-0.22 -1.11,-0.29 -0.05,-0.89 -0.12,-1.73 -0.25,-2.37l0 -0.01zm81.91 -5.07l0.52 -0.19c-0.03,0.34 -0.08,0.64 -0.13,0.91 -0.11,-0.25 -0.24,-0.48 -0.39,-0.72l0 0zm44.38 -11.12c1.34,-1.07 0.77,-4.91 -1.11,-4.96 -0.36,0.77 0.6,4.36 1.11,4.96zm-64.92 6.94c-0.22,-0.68 -3.75,-4.4 -4.51,-5 0.39,1.44 3.15,4.19 4.51,5zm100.61 -17.76c0.99,-1.21 1.18,-5.19 -1.11,-4.69l1.11 4.69zm-38.18 6.18c0.48,-1.21 -0.04,-1.02 0.89,-2.6 -0.51,-1.78 -2.59,-4.15 -4.23,-2.13 0.51,0.88 1.18,1.23 1.77,2.03 0.63,0.86 1.04,1.87 1.57,2.7l0 0zm-123.88 8.92c-1.48,2.38 -2.88,4.63 -2.63,7.68 0.01,-1.58 2.18,-5.55 2.63,-7.68zm106.77 -12.17c-0.23,-0.9 -1.07,-2.53 -1.74,-3.09 0.17,0.97 0.92,2.56 1.74,3.09zm38.62 -6.57c-0.03,-0.42 -0.14,-0.32 0.21,-0.4 2.02,1.08 1.78,4 0.36,4.99 1.96,-0.16 2.19,-4.09 0.92,-5.71 -0.32,-0.9 -0.42,-1.08 -1.29,-1.37 -1.56,-1.74 -4.24,0.58 -4.75,2.19 1.21,-0.11 1.42,-0.66 2.54,-0.9 -0.68,0.41 -0.47,0.36 -0.48,0.78 2.22,-0.46 1.58,0.5 2.48,1.8l0.01 -1.38 0 0zm3.26 -2.67l0.16 1.23c0.73,0.19 0.64,0.09 1.05,-0.26 1.75,2.19 1,1.11 1.34,3.8 0.93,-1.99 0.38,-2.31 -0.14,-4.25 2.94,1.03 1.55,4.92 1.77,6.6 2.17,-1.65 0.91,-5.72 -0.41,-7.63 -2.03,-2.95 -3.77,-2.76 -6.05,-0.11l1.86 1.12c0.02,-0.43 -0.38,-0.34 0.42,-0.5zm-52.51 4.39c-0.67,1.98 -0.08,3.35 1.33,4.8l-0.51 -3.63c0.48,-0.48 0.01,-1.76 -0.31,-2.28 -0.53,0.39 -0.4,0.35 -0.51,1.11zm12.45 4.08c0.4,-0.78 0.18,-0.6 -0.36,-1.38 -0.86,-1.28 -1.65,-2.95 -2.66,-4.09 0.23,1.29 1.93,4.85 3.02,5.47zm48.15 -5.21c0.14,-1.79 -0.21,-2.66 -0.4,-4.31 3.1,4.8 1.25,4.51 1.89,7.51 3.41,-2.57 -2.19,-14.01 -6.18,-9.7 0.43,0.69 1.86,1.23 2.82,2.63 1.09,1.58 1.14,2.27 1.87,3.87l0 0zm1.82 -7.2l-0.67 -0.42c0.04,1.2 0.04,0.51 0.33,0.81l2.21 3.94c1.23,-1.97 -1.28,-3.25 -1.87,-4.33zm-50.82 6.75l-0.26 -0.64c-0.25,0.66 -0.48,0.36 0.19,0.94 0.14,0.97 0.58,1.68 1.05,2.53 0.51,0.92 0.64,1.72 1.66,1.64 -0.35,-1.82 -2.06,-2.96 -2.64,-4.47l0 0zm3 0.14l-1.63 -0.68c0.15,1.22 0.67,2.24 1.31,3.22 0.79,1.23 1.23,1.72 2.8,1.33 0.05,-1.56 -2.07,-2.52 -2.48,-3.87l0 0zm-9.55 10.16c-0.27,-4.19 -4.16,-10.44 -4.3,-10.88 0.32,2 3.3,8.83 4.3,10.88zm39.59 -14.49c-0.37,-1.06 -1.9,-2.86 -2.73,-3.7 0.41,1.26 1.49,3.36 2.73,3.7zm-0.17 -2.68c0.5,0.9 1.02,2.05 1.98,1.81 -0.22,-0.81 -1.16,-1.51 -1.65,-2.26l-1.95 -1.91c0.24,0.82 0.97,1.88 1.62,2.36zm4.46 1.47c-0.24,-0.62 -3.14,-3.61 -4.26,-3.63 0.5,0.8 1.22,1.57 1.74,2.4 0.76,1.23 0.8,1.69 2.52,1.23l0 0zm-13.92 0.89l2.79 1.74c-0.27,-1.05 -1.47,-2.17 -2.41,-2.57 -0.54,-0.74 -1.37,-1 -2.16,-2.1 0.18,-1.34 0.4,-2.43 0.13,-3.89 -0.22,0.6 -0.94,3.38 -1.01,4.17 -0.12,1.28 1.93,2.77 2.66,2.65l0 0zm4.99 -11.64l-0.64 -0.6c0.15,1.5 1.07,2.83 2.55,3.03 -0.81,0.1 -1.1,-0.01 -1.72,-0.55 -0.33,-0.65 0.07,-0.11 -0.42,-0.67 -0.65,-0.73 -0.02,-0.18 -0.75,-0.57 -1,-1.67 -1.2,-4.89 -1.71,-6.82 -0.59,1.96 0.67,7.9 2.59,9.42 0.3,0.69 0.02,0.27 0.48,0.35 0.93,0.6 2.2,1.39 3.28,1.43 2.01,-1.37 0.77,-4.88 0.04,-6.69 -0.69,-1.73 -1.22,-6.96 -1.99,-7.88 -0.63,1.84 0.44,4.96 -0.06,6.44 -0.67,-1.93 -0.87,-5.33 -1.18,-7.47 -0.49,3.03 0.43,6.69 0.22,9.78 -0.82,-1.64 -0.94,-5.08 -1.56,-6.95 -0.69,1.34 0.3,6.25 0.87,7.75l0 0zm-73.47 6.56c-0.6,1.17 -0.59,3.41 -2.54,6.57 -0.6,0.96 -1.16,1.95 -1.81,2.81 -0.66,0.87 -1.68,1.83 -2.18,2.73 3.58,-1.68 6.93,-8.03 6.53,-12.11l0 0zm-38.95 5.65c-1.36,1.34 -2.47,2.48 -3.73,3.86 -0.94,1.04 -3.55,3.13 -4.05,3.86 3.48,-1.43 7.83,-7.32 7.98,-7.42 0.74,-0.32 0.69,-0.66 0.72,-1.44 -0.62,0.43 -0.72,0.37 -0.92,1.14l0 0zm43.99 -4.95c-0.65,2.43 -2.77,7.2 -5.22,7.99 0.3,-0.86 1.51,-2.49 2.02,-3.78 0.53,-1.33 1.19,-3.3 1.05,-4.7 -2.53,7.43 -4.69,10.11 -11.43,15.09 2.56,-0.65 6.34,-4.07 8.59,-5.57 2.29,-1.53 5.94,-5.28 5.45,-8.17 0.78,-1.08 0.46,-3.83 0.22,-5.21l-0.69 4.35 0.01 0zm40.59 -27.13c-0.03,0.98 -0.66,3.03 -0.85,4.2l-1.16 9.49c-0.18,1.51 0.14,3.82 -0.22,5.01 -1.47,-5.68 -0.1,-12.29 0.29,-17.9 0.11,0.79 -0.78,3.22 -1.01,4.42 -1.05,5.35 -0.86,15.42 -0.96,15.74 -1.97,-7.03 -0.7,-10.91 -0.99,-15.43 0.08,0.62 -1.14,6 -0.68,12.23 0.13,1.82 0.27,5.54 0.82,7.1 0.71,1.99 2.48,3.12 3.15,4.5l-0.12 0.06c-1.13,-0.73 -3.14,-2.22 -3.51,-3.64 0.16,2.64 3.06,3.89 4.03,5.36 -1.27,0.13 -1.49,-0.47 -2.53,-0.65 -0.57,-0.63 -0.95,-0.63 -1.61,-1.41 -0.45,-0.52 -0.91,-1.1 -1.31,-1.58 0.25,1.34 1.37,2.66 2.48,3.31 0.83,0.87 2.49,1.59 3.76,1.75l0.08 1.19c3.32,-0.19 1.92,-5.28 1.2,-7.12 -2.88,-7.32 -0.71,-18.96 -0.44,-26.65 0.32,-0.65 0.24,-0.7 0.11,-1.5l-0.53 1.52 0 0zm-26.93 12.76c-0.88,-0.24 -2.33,-0.2 -3.43,-0.44 -4.47,-0.97 -4.86,-1.05 -9.31,-2.71 -2.5,-0.92 -10.35,-3.73 -12.55,-3.72l6.03 2.09c5.53,1.82 13.29,5.97 19.26,4.78l0 0zm-6.52 -3.28c-0.89,-0.8 -13.31,-4.73 -15.03,-4.97 2.03,1.03 13,4.9 15.03,4.97zm11.1 -0.78c-0.89,-5.49 -5.21,-6.25 -7.69,-10.6 0.36,4.09 4.88,8.35 7.69,10.6zm17.52 -17.77c-0.75,1.59 -1.48,4.4 -2.29,6.35 -0.63,1.56 -2.01,5.03 -1.92,6.6 1.38,-1.79 4.36,-10.51 4.21,-12.95l0 0zm-88.75 52.29l-3.17 2.44c1.01,-0.27 2.84,-1.46 3.28,-2.34 0.91,-0.38 4.31,-3.13 5.22,-3.93 0.83,-0.75 1.54,-1.46 2.33,-2.23 0.6,-0.59 1.84,-2.11 2.28,-2.46l0.17 0.41c-1.36,2.33 -3.88,5.14 -6.01,7.03 -1.41,0.62 -2.42,1.53 -3.02,2.87 -0.61,0.26 -5.89,3.82 -6.79,4.46 -1.09,0.26 -2.51,1.36 -3.45,1.96 1.15,-0.18 3.01,-0.98 3.68,-1.82 5.17,-1.77 10.35,-5.8 14,-9.81 7.48,-8.18 10.87,-21.04 15.59,-29.26 3.07,-5.36 6.39,-8.55 10.79,-12.3 -9.83,2.37 -14.28,14.19 -17.85,22.11 -1.93,4.28 -4.84,7.47 -7.36,12.35 -2.59,5 -5.91,6.82 -9.69,10.52l0 0zm20.03 -46.77c-0.51,2.59 -2.23,10.32 -1.97,12.71 0.02,-0.05 0.06,-0.17 0.08,-0.13l0.19 -0.46c0.7,-2.17 1.69,-10.12 1.7,-12.12l0 0zm53.85 -4.32c-1.34,-1.42 -2.59,-3.69 -3.69,-4.81 0.28,2.21 1.75,4.03 3.69,4.81zm9.1 -5.35c-0.3,1.96 -3.05,7.95 -4.61,8.65 1.3,-3.06 3.4,-6.41 2.87,-9.9 -0.95,1.6 -2.96,10.36 -6.71,9.76 -2.94,-0.48 -8.95,-3.74 -10.2,-6.36 0.82,5.74 6.83,9.86 7.07,11.02 -1.5,-0.03 -4.79,-2.32 -5.42,-2.37 0.8,3.07 5.3,3.86 5.99,5.51 1.05,2.54 2.1,7.02 2.96,9.82 1.52,4.97 4.74,13.16 7.26,17.61 -0.37,-2.27 -1.78,-5.98 -2.55,-8.25 -1.95,-5.74 -5.69,-16.46 -5.84,-22.23 -0.06,-2.19 0.06,-2.53 2.27,-2.83 0.37,1.06 0.25,3.81 0.51,5.35 0.39,2.33 1.6,8.21 2.31,10.36 0.39,1.21 1.4,3.68 1.56,4.73l0.98 2.73c0.03,-0.94 -0.24,-2.57 -0.87,-3.08 -0.2,-2.91 -4.01,-10.11 -1.33,-17.71 0.18,0.97 0.06,2.02 0.19,3.03 0.15,1.17 0.41,2.38 0.59,3.54 0.29,1.75 0.65,4.87 1.3,6.37 -0.31,-5.13 -1.08,-9 1.44,-13.74 0.12,2.82 -1.19,5.21 -0.29,8.7 0.45,-0.96 0.6,-3.76 0.94,-5.16 1,-4.04 3.97,-10.49 3.69,-14.75 0.15,1.55 -2.77,8.58 -3.94,9.76 -0.1,-1.86 2.54,-8.14 1.88,-9.75 -1.19,3.3 -1.72,5.42 -3.86,8.34 -0.06,-1.51 2.27,-5.92 2.05,-8.78 0.44,-0.69 0.39,-1.33 0.21,-2.18l-0.45 1.81 0 0zm-63.58 3.11c-1.41,2.6 -2.49,9.11 -3.07,12.2 -1.58,8.31 -4.75,22.31 -9.62,29.17 -1.02,1.43 -2.68,3.23 -3.53,4.64 8.68,-7.59 12.15,-21.9 13.8,-33.14 0.66,-4.5 1.52,-8.48 2.42,-12.87l0 0zm-60.09 8.67c3.96,3.21 12.26,3.99 17.5,3.05 1.41,-0.25 5.29,-1.08 6.29,-1.93 -5.03,1.05 -6.18,2.32 -12.87,1.74 -5.23,-0.45 -6.01,-1.1 -10.55,-3.02 -0.55,-0.47 -2.29,-1.68 -2.85,-1.82 0.6,0.85 1.51,1.61 2.48,1.98l0 0zm123.61 -21.69c0.26,0.3 -0.07,0.66 0.8,0.21l-0.8 -0.21zm-123.23 19.98c0.88,1.55 5.55,2.81 7.3,3.1 3.43,0.56 6.81,0.4 10.21,-0.37 4.4,-0.99 12.85,-4.6 15.43,-7.96 -2.22,0.95 -4.65,2.61 -7.04,3.78 -6.7,3.24 -14.43,4.4 -21.57,2.17 -1.18,-0.36 -2.5,-1.27 -3.64,-1.38 -0.66,-0.83 -2.08,-1.29 -2.96,-2.01 -0.79,-0.64 -1.62,-1.64 -2.41,-2.36 0.6,1.36 3.41,4.63 4.68,5.03l0 0zm155.05 -28.04c1.01,2.19 1.83,4.06 2.62,6.4 0.48,1.43 1.44,6.34 2.08,7.05l0.6 5.03c0.27,2.99 -0.36,4.58 -0.48,7.14 0.28,-0.7 0.75,-1.37 1.1,-2.2 1.57,-3.76 0.51,-5.88 -0.07,-9.52l-0.78 -4.36c-0.32,-2.41 -2.15,-8.99 -4.12,-10.26 -0.22,-1.21 -4.83,-6.33 -6.13,-7.1 -0.41,-0.25 0.06,-0.05 -0.48,-0.2 0.45,1.16 2.19,2.81 3.01,3.98 0.94,1.38 1.76,2.65 2.65,4.04l0 0zm-24.53 -3.69c0.59,1.03 1.59,1.91 2.32,2.87 0.76,1.01 1.51,2.09 2.2,3.15 1,1.5 3.41,5.65 3.66,7.26 -1.17,-1.13 -3.61,-6.02 -7.06,-9.62 -0.47,-0.48 -2.51,-2.45 -2.72,-2.74 1.02,2.04 6.14,8.15 8.13,12.45 3.06,6.58 3.98,8.99 4.41,16.39l-0.13 0.7 0.27 -0.78c1.82,-4.81 0.3,-12.9 -1.8,-17.56 -1.44,-3.19 -6.07,-10.75 -8.98,-12.43 -0.39,-0.53 -0.21,-0.34 -0.78,-0.77 -0.6,-0.45 -0.28,-0.3 -0.92,-0.35l1.4 1.43 0 0zm-23.56 7.2c0.33,0.76 2.2,3.06 2.87,3.71 1.25,1.22 2.05,2.41 2.32,4.18 -0.15,0.35 0.14,0.83 -0.92,-1.62 -0.08,-0.01 -0.21,0.01 -0.3,0.01l-0.63 -0.09c-0.32,-0.75 -0.5,-1.33 -1.09,-1.77 -0.03,1.39 0.8,5.31 1.5,6.57 0.54,0.96 2.35,4.09 3.12,4.53l-0.76 -4.61 0.5 1.32 -0.14 -2.18 1.16 0.74c0.15,-1.18 0.1,-2.25 -0.9,-3.03 -0.19,-0.98 -0.88,-2.55 -1.68,-3.13 -0.54,-0.63 -0.82,-0.52 -1.47,-1.05 -0.4,-0.33 -0.75,-0.75 -1.14,-1.13 -0.81,-0.75 -1.74,-2.29 -2.28,-2.67 -0.47,-1.61 -1.51,-3.28 -2.08,-5.05 -0.39,-1.24 -1.11,-5.51 -1.43,-6.01 -0.52,2.46 0.66,6.75 2.02,9.21 0.42,0.73 1.05,1.49 1.33,2.08l0 -0.01zm36.64 -9.1c0.1,0.55 2.89,5.29 3.46,6.51 3.25,6.96 4.85,13.47 3.83,21.25 -0.13,0.97 -0.56,3.07 -0.55,3.82 -0.41,0.68 -0.46,0.99 -0.44,1.82 0.48,-0.62 0.53,-0.87 0.6,-1.67 2.53,-3.81 2.23,-13.2 1.05,-17.71 -1.16,-4.45 -3.04,-7.88 -5.56,-11.63 -0.57,-0.86 -1.98,-2.31 -2.3,-3.05 -0.48,-0.86 -1.54,-1.82 -2.43,-2.37 0.43,0.94 1.44,2.49 2.34,3.03l0 0zm-35.09 0.93c-1.68,-2.21 -1.41,-6.51 -2.11,-8.63 -1.02,0.79 -0.31,5.64 -0.02,6.95 0.46,2.16 1.31,4 2.51,5.84 1.33,2.01 6.32,7.42 8.71,7.07 -0.06,-0.1 -2.72,-2.69 -3.21,-3.27 -2.51,-3.03 -3.68,-4.87 -5.05,-8.68 -0.67,-1.88 -0.86,-4.04 -1.45,-5.67 -0.66,1.47 0.58,4.66 0.62,6.39zm21.29 -4.69l2.25 2.52c0.94,1.25 2.98,3.21 4.15,4.45 3.8,4.08 8.26,12.33 8.81,17.34 -0.31,-5.22 -1.47,-9.13 -4.11,-13.52 -1.24,-2.1 -5.92,-7.68 -7.82,-8.52l-3.89 -2.79 0.61 0.52zm35.6 8.78c0.18,-0.32 0.34,-0.34 0.15,-1.27l-1.13 -3.09c-0.47,-1.19 -1.14,-2.29 -1.77,-3.41 -0.95,-1.69 -3.32,-4.31 -4.67,-5.55 0.43,1.03 1.36,1.98 2.11,2.85 0.78,0.91 1.38,2.08 2.01,3.12 1.08,1.79 2.66,5.35 3.3,7.35l0 0zm-42.17 8.63c-0.17,-0.25 -1.93,-1.33 -3.59,-3.28 -2.49,-2.97 -7.31,-10.8 -7.63,-14.21l-1.09 -5.39c-0.22,1.55 -0.9,5.6 0.26,6.85 0.06,3.03 2.71,7.71 4.51,10.07 1.39,1.83 5.45,5.87 7.54,5.96l0 0zm17.93 -20.29c0.43,0.67 0.47,0.81 1.13,1.16 0.26,0.69 0.54,1.02 1.15,1.34 0.34,0.8 2.16,2.85 2.92,3.23 0.73,2.62 6.57,7.41 8.17,19.12 0.48,3.56 0.42,7.63 -0.19,11.16 -0.92,5.29 -2.03,6.29 -2.83,9.17 -0.6,0.52 -0.7,1.22 -1.03,1.93 0.68,-0.41 1.08,-0.95 1.37,-1.67 0.61,-1.31 1.74,-2.51 2.44,-4.08 0.64,-1.42 1.35,-3.15 1.69,-4.7 1.76,-7.92 1.15,-15.12 -2.64,-22.57 -0.73,-1.41 -4.45,-7.5 -5.5,-8.06 -0.47,-0.94 -3.24,-3.6 -4.09,-4.16 -0.35,-0.46 -0.64,-0.93 -1.13,-1.02 -0.34,-0.52 -0.5,-0.84 -1.08,-0.98 -0.47,-0.66 -0.29,-0.57 -1.06,-0.78 0.18,0.76 -0.07,0.47 0.68,0.91zm-26.41 3.73c0.42,4.23 8,12.5 10.48,13.09 -1.1,-1.8 -3.8,-4.96 -5.24,-6.85 -1.91,-2.51 -3.06,-4.99 -4.56,-7.45 -0.27,-0.88 -1.86,-5.96 -2.03,-6.26 -0.12,1.63 0.18,6.48 1.35,7.47zm-21.74 0.57c0.32,-0.36 0.15,0.38 0.27,-0.47 0.13,-1 0.02,-0.15 -0.28,-0.54l-0.34 0.9c-0.8,0.32 -5.2,9.08 -5.62,9.33 -0.09,-1.3 1.46,-4.76 1.73,-6.34 -1.39,0.66 -4.39,6 -6.7,7.12l2.51 -4.39c-0.77,0.2 -0.42,0.03 -0.76,0.6 -1.49,0.56 -2.59,2.08 -4.1,2.66 -1.18,0.32 -3.06,1.11 -3.74,2.05 -1.59,0.41 -3.39,1.44 -5.11,1.96 -1.83,0.54 -4.04,1.04 -5.93,1.32 -4.54,0.71 -7.84,0.68 -12.28,2.47 -3.51,1.41 -5.62,2.81 -8.25,5.52 -3.95,4.07 -3.06,4.2 -5.14,7.67 -3.51,5.85 -6.24,10.25 -8.6,16.81 -1.84,5.11 -4.4,14.65 -3.96,19.96 -0.15,-7.82 9.41,-31.02 15.37,-35.95l0.07 0.01c-0.21,0.88 -2.76,5.28 -3.4,6.55 -2.81,5.49 -3.75,8.13 -5.8,13.75l-2.19 7.18c0.45,-1.74 2.05,-4.74 2.79,-6.73 1.94,-5.17 6.41,-15.22 9.88,-18.76 -0.52,1.57 -2.13,4.62 -2.93,6.28l-5.11 12.87c-0.57,1.83 -1.97,5.11 -2.18,6.78 1.13,-1.41 5.63,-14.06 8.43,-18.99l3.54 -5.55c-0.74,1.88 -1.75,3.75 -2.51,5.73 -0.78,2.02 -1.61,3.94 -2.43,5.94 -0.9,2.19 -4,10.33 -4.06,12.19 -0.77,0.7 -1.2,2.55 -1.17,3.6l1.39 -3.43c1.3,-4.2 6.94,-17.85 9.46,-21.02 -0.82,3.15 -2.67,7.79 -3.89,10.96 -0.83,2.15 -3.58,9.06 -3.61,10.93 -0.81,0.78 -1.36,2.73 -1.33,3.89l1.52 -3.78c1.13,-2.18 4.47,-11.25 6.29,-15.24 0.53,-1.14 2.12,-3.73 2.41,-4.59 -0.63,2.15 -1.38,4.46 -2.1,6.61 -0.71,2.15 -1.7,4.22 -2.36,6.38 -1.36,4.41 -2.98,8.88 -4.2,13.21 0.72,-2.71 9.72,-24.5 11.15,-26.8l-8.48 26.73c1.92,-4.51 3.39,-9.69 5.38,-14.22 1.98,-4.51 3.44,-9.6 5.61,-13.99l0.22 0.19c-0.25,1.71 -1.26,4.53 -1.76,6.32 -0.93,3.36 -5.4,16.7 -5.63,18.67 1.26,-2.04 3.62,-10.11 4.67,-13.01l4.7 -12.72 0.24 0.36c-0.3,3.97 -5.29,18.49 -5.73,22.1 1.29,-2.42 8.24,-25.04 8.9,-28.33 0.65,-3.25 1.99,-6.08 3.55,-8.68 -1.25,1.53 -2.13,2.58 -3.19,4.38 -0.57,0.97 -2,4.41 -2.9,4.64 0.78,-1.36 1.04,-2.91 1.73,-4.33 0.43,-0.92 2.02,-3.44 2.15,-3.87 0.89,-0.48 0.85,-0.68 1.46,-1.46 -0.71,0.22 -1.23,0.75 -1.61,1.37 -1.62,0.91 -2.72,4.23 -3.93,5.23 0.02,-2.24 2.85,-6.46 4.58,-7.83 2.55,-2 5.94,-3.47 9.09,-4.25 0.8,-0.16 1.01,-0.44 1.44,0.08 -1.77,0.22 -4.67,3.29 -5.02,4.92 0.92,-0.7 1.64,-1.7 2.56,-2.43 0.9,-0.72 1.94,-1.27 2.79,-2.12 0.4,-0.07 0.31,-0.17 0.36,0.2 -1.3,1.21 -5.62,7.3 -5.82,9.22 -0.54,0.48 -0.58,0.61 -0.56,1.39l0.69 -1.34c0.89,-1.04 1.74,-2.82 2.75,-4 0.84,-0.97 2.29,-3 3.37,-3.52 -0.65,1.56 -2.46,3.86 -3.3,5.77 -0.81,1.82 -2.1,4.38 -2.57,6.23 0.45,-1.97 5.29,-9.07 6.74,-10.34l0.07 0.23c-1.2,2.68 -4.65,9.31 -4.98,11.93 0.83,-2.96 5.63,-10.69 7.72,-12.35 -1.78,3.86 -5.31,9.73 -5.43,14.03 -0.14,-1.92 3.06,-7.4 4.11,-9.44 1.15,-2.18 4.3,-6.39 6.29,-7.69 -0.08,0.84 -1.43,2.43 -1.94,3.4 -1.63,3.17 -2.36,9.43 -1.76,12.79 -0.55,-2.34 1.57,-10.23 3.05,-12.49 -0.62,6.09 -1.38,9.03 0.06,15.3 -0.47,-5.92 -0.16,-11.55 2.19,-17 0.03,1.88 -0.46,4.52 -0.51,6.68 -0.04,2.7 0.28,4.77 0.48,7.39l0.76 3.08 -0.27 -3.2c-0.51,-2.65 -0.16,-5.91 0.21,-8.57 0.36,-2.57 1.3,-5.01 1.62,-7.3l0.34 0.05c-0.54,6.87 -0.87,11.74 1.04,18.52 -0.36,-4.23 -0.82,-7.46 -0.49,-11.77 0.28,-3.5 1.36,-6.42 1.92,-9.66l0.19 0.18c0.1,1.14 -0.51,6.87 -0.37,10.2 0.19,4.12 0.68,6.95 1.91,10.83 -0.25,-2.18 -0.79,-3.92 -0.89,-6.29 -0.08,-1.86 -0.06,-4.09 0.06,-5.93 0.14,-2.06 1.06,-9.16 1.79,-10.56 0.18,1.52 -0.2,3.22 -0.24,4.8 -0.06,3.22 0.2,13.39 1.74,15.31 -0.01,-3.76 -0.94,-7.16 -0.62,-11.31 0.26,-3.2 1.07,-6.66 1.26,-9.56l0.26 0.2c0.44,3.24 -0.35,17.26 1.97,20.2 -0.11,-3.06 -0.7,-6.16 -0.75,-9.4 -0.05,-2.83 -0.05,-5.66 0.39,-8.44 0.45,-2.83 2.06,-13.91 1.75,-16.02 -0.96,0.92 -2.09,7.22 -3.06,8.62 -0.41,-2.18 1.06,-5.04 0.92,-6.77l0 0zm24.29 -3.04c0.04,0.85 0.11,1.01 0.66,1.57 0.02,0.68 0.22,1.14 0.73,1.53 0.34,1.76 5.34,8.16 6.61,10.44 3.62,6.46 3.37,5.98 4.94,12.8 3.2,-6.95 -9.92,-23.1 -10.31,-23.35l-3.87 -8.33c-0.01,1.54 0.24,4.25 1.24,5.34l0 0zm-125.73 18.09c0.71,-1.34 1.84,-2.63 2.14,-3.93 -1.05,0.58 -2.04,2.61 -2.14,3.93zm135.38 -15.32c-0.16,-0.84 -0.09,-0.61 -0.67,-1.32 -2.36,-2.87 -3.94,-7.37 -4.78,-8.49 0.15,2.65 3.05,9.13 5.45,9.81zm-6.03 -2.84c0.37,1.13 2.95,5.47 3.79,6.06 0.88,2.89 7.95,11.13 10.63,18.78 0.49,1.43 2.11,7.16 2.5,7.73 1.7,-12.05 -11.54,-23.73 -12.91,-27.15 -0.9,-1.61 -3.41,-4.24 -3.77,-5.88 -0.46,-1.17 -1.06,-2.23 -1.51,-3.49 -0.39,-1.11 -0.58,-2.59 -1.17,-3.5 0.15,1.94 0.96,6.24 2.44,7.45l0 0zm-20.11 14.78c-0.25,-0.75 -1.37,-2.03 -1.84,-3.23 -1,-2.56 -1.55,-6.12 -1.38,-8.84 0.08,-1.25 0.39,-2.54 0.32,-3.76 -0.1,0.81 -0.94,2.56 -1.25,3.67 -0.71,2.53 -2.06,9.59 -2.2,12.05 -0.36,6.3 0.32,13.06 1.96,19.08 -0.4,-3.99 -1.08,-7.53 -0.85,-11.63 0.11,-1.97 -0.04,-9.01 1.06,-10.16 0.47,1.38 0.42,7.86 0.56,9.93 0.37,5.69 1.01,5.64 1.85,9.61 -0.24,-3.79 -1.97,-13.14 -0.52,-16.55l0.55 0.1c1.23,3.91 -0.08,7.24 2.07,11.71 -0.12,-1.4 -0.49,-2.78 -0.71,-4.18 -0.24,-1.47 -0.2,-2.75 -0.33,-4.18l0.71 -1.15 0.95 0.36c1.3,0.12 2.63,2.91 5.08,2.5 -0.21,-0.64 -2.73,-3.95 -3.39,-5.01 -2.03,-3.3 -2.17,-10.19 -1.67,-14.02 0.22,-1.74 0.96,-4.82 1,-6.28 -3.29,4.84 -2.57,11.67 -1.9,17.27 0.23,1.93 0.45,2.03 -0.07,2.71l0 0zm49.77 -25.29c2.4,2.63 9.85,4.47 14.27,13.96 2.28,4.9 2.99,13.17 2.24,18.7 -0.23,1.65 -1.1,4.02 -0.82,5.54 0.35,-0.35 0.46,-0.84 0.64,-1.3 0.39,-1.36 0.88,-2.69 1.2,-4.07 1.46,-6.45 1.52,-13.03 -1.22,-19.19 -1.27,-2.87 -4.19,-7 -6.65,-8.89 -1.97,-1.53 -7.19,-4.16 -9.6,-4.9l-0.28 -0.53 -1.05 -0.21 1.27 0.89 0 0zm-17.49 -4.91l-1.42 -6.73c-0.43,1.35 0.47,8.08 1.22,9.21 0.23,1.56 1.35,3.61 2.13,4.97 1.11,1.9 1.9,2.22 3.06,3.63 -0.75,-1.61 -1.91,-3.13 -2.79,-5.02 -0.76,-1.69 -1.93,-4.27 -2.2,-6.06zm-138.76 28.22c0.25,0.63 -0.57,0.11 0.41,0.64 0.31,-0.48 1.89,-2.71 2.03,-3.1 1.08,-0.74 1.78,-1.66 2.97,-2.42 4.67,-3.04 6.24,-3.74 12.1,-5.19 8.93,-2.2 14.62,-1.37 20.48,-2.52 -4.47,-0.16 -8.99,-0.66 -13.58,-0.08 -7.5,0.95 -18.65,3.37 -23.64,9.65 -1.7,2.14 -5.27,6.71 -5.16,9.59 1.3,-2.5 2.38,-4.69 4.39,-6.57l0 0zm130.4 -21.3c0.41,2.81 0.83,3.47 2.04,5.76 -0.23,-1.81 -1.17,-3.86 -1.51,-5.86 -0.4,-2.45 -0.12,-4.17 -0.38,-6.33 -0.65,1.68 -0.44,4.55 -0.15,6.43zm40.65 -12.7c0.33,0.73 2.49,3.5 3.15,4.48 2.76,4.12 6.2,11.47 7.05,16.2 -0.11,-7.52 -4.81,-15.85 -9.98,-20.95 -0.38,-0.65 -0.22,-0.61 -0.97,-0.69 0.19,0.77 0.13,0.63 0.75,0.96l0 0zm-3.94 -0.84c0.67,1.22 1.93,2.43 2.8,3.61 0.97,1.3 1.84,2.45 2.68,3.84 1.15,1.87 3.8,6.92 4.14,8.93l-0.19 0.22c-0.47,-1.67 -3.04,-6.31 -4.2,-7.77 -0.85,-1.06 -4.53,-5.78 -5.37,-6.1 -0.47,-0.94 -1.76,-2.06 -2.58,-2.8 0.3,0.88 1.34,2.51 2.1,3.04 1.21,1.33 5.56,7.41 5.94,8.86l-0.03 -0.03c-1.88,-1.86 -6.81,-7.93 -8.6,-9.09 1.29,2.9 6.58,8 8.64,11.52 4.02,6.84 3.89,8.68 5.24,15.8 0.51,-1.88 0.91,-4.59 0.51,-6.58l0.03 -4.21c-1,-4.46 -1.78,-7.68 -4.21,-11.56 -0.91,-1.45 -1.99,-2.99 -3.18,-4.23 -1.05,-1.1 -2.71,-2.6 -3.51,-3.71l-1.9 -2c0.28,0.86 0.88,1.88 1.69,2.26l0 0zm-33.03 0.13c-0.4,2.43 -1.97,3.98 -1.93,9.4 0.12,13.07 9.75,15.25 15.24,23.37 3.99,5.91 5.66,13.69 5.24,20.75 -0.45,7.29 -2.26,11.52 -5.85,17.68 3.96,-2.94 6.76,-9.8 7.58,-14.55 3.84,-22.22 -11.75,-31.96 -15.96,-42.04 -2.42,-5.76 -1.83,-7.13 -2.8,-9.95 -1.17,3.59 0.9,11.72 3.63,15.96 0.79,1.23 2.46,2.91 2.98,3.95l-0.14 0.11c-3.59,-3.37 -5.76,-5 -7.53,-10.02 -1.8,-5.1 -1.04,-9.55 -0.19,-14.61 0.24,-0.37 0.19,0.13 0.31,-0.74 0.02,-0.17 -0.07,-0.47 -0.1,-0.58l-0.48 1.27 0 0zm-22.14 -1.13c-1.04,0.01 -2.5,-0.88 -4.02,-0.88 -1.29,0 -3.52,0.67 -2.94,2.29 2.26,-0.5 1.92,-1.54 5.26,-0.89 2.03,0.4 2.92,1.8 4.16,1.91 -0.11,-0.83 -0.68,-2.99 -1.29,-3.54 -1.08,0.1 -0.66,0.26 -1.17,1.11zm48.06 7.88c0.56,0.41 0.59,0.41 1.38,0.41 -0.34,-0.43 -0.64,-0.61 -1.08,-0.76 -2.21,-0.22 -6.55,-4.51 -8.14,-6.31 -4.39,-5 -4.47,-6.56 -6.26,-8.82 0.91,5.31 7.16,14.41 14.1,15.48zm-20.83 -13.46l-0.73 -2.35 0.14 2.4c0.71,2.95 0.48,6.36 1.34,9.69 0.78,3.04 1.72,4.83 3.42,7.41 6.19,9.42 13.85,10.49 20.23,20.16 3.99,6.07 3.77,10.14 4.96,16.88 0.88,-5.83 -0.25,-12.57 -3.2,-17.63 -1.91,-3.3 -6.88,-9.36 -10.29,-10.79l0.04 -0.27c3.14,1.1 6.92,3.86 9.03,6.34 4.44,5.18 4.01,6.93 6.03,10.43 -0.96,-9.43 -8.3,-17.07 -15.73,-22.11 -3.73,-2.53 -6.65,-5.92 -8.92,-9.82 -1.6,-2.78 -4.34,-11.31 -5.01,-14.46 0.29,4.92 1.86,12.73 4.41,17.11 1.6,2.73 6.74,9.31 9.58,10.23 -3.46,-0.56 -7.98,-5.33 -10.07,-8.26 -2.87,-4.02 -5.07,-9.81 -5.22,-14.96l-0.01 0zm23.7 -4.09c1.23,3.13 9.53,11.87 15.95,10.8 -3.21,-0.86 -6.14,-2.61 -8.65,-4.5 -1.48,-1.11 -5.68,-4.96 -6.83,-6.54l-1.64 -1.55c0.18,0.75 0.49,1.36 1.17,1.79l0 0zm-30.81 8.47c0.57,-1.94 0.64,-5.66 -1.06,-7.07 0.15,1.15 0.55,2.35 0.71,3.56 0.14,1.15 0.17,2.44 0.35,3.51zm-29.27 -0.03c1.38,-0.42 1.7,-2.59 1.21,-3.93 -0.43,-1.15 -1.68,-2.69 -2.46,-3.42 -0.84,1.74 -0.11,5.96 1.25,7.35zm61.76 -9.91c0.88,3.01 11.8,12.64 17.49,10.91 -5.02,-2.17 -4.2,-1 -9.42,-4.81 -1.41,-1.03 -2.49,-2.31 -3.98,-3.44 -1.19,-0.91 -2.48,-2.51 -3.75,-3.42l-3.07 -2.59c0.51,0.9 1.82,2.92 2.73,3.35l0 0zm3.52 25.1c-5.7,-2.16 -11.96,-4.73 -16.33,-9.3 -7.42,-7.76 -6.39,-10.52 -10.2,-17.56 0.39,1.82 1.27,3.62 1.77,5.46 1.52,5.54 3.12,9.29 7.42,13.44 2.46,2.37 4.44,4.01 7.63,5.47 2.34,1.09 7.13,3 9.71,2.49l0 0zm-45.63 -21.31c0.75,1.25 2.12,1.54 2.34,3.62 -0.33,-0.46 -0.8,-1.31 -1.29,-1.43 -0.46,-0.55 -0.78,-0.98 -1.46,-1.05 -0.5,-0.52 -1.14,-1.16 -1.8,-1.32 0.14,1.04 -0.11,0.25 0.33,1.04 0.38,0.69 0.19,0.29 0.44,0.55 0.27,0.73 1.32,1.25 2.08,1.48 1.31,2.25 2.57,2 2.54,5.75 -0.02,2.2 -2.31,3.77 -4.41,3.46 -0.26,-0.86 -0.13,0.05 0.39,-0.78 -1.19,0 -2.51,-0.17 -3.48,-0.15 -1.19,0.01 -1.98,0.7 -3.42,0.57 -1.46,-0.13 -3.53,-1.68 -5.12,-2.19 -5.73,-1.84 -5.04,6.48 -2.73,9.13 0.17,-0.55 -0.57,-3 -0.41,-4.4 0.67,1.52 2.21,6.29 4.35,6.34 -0.2,-1.48 -2.39,-3.02 -2.31,-6.19 0.68,1.16 2.96,7.21 4.98,7.4 -0.03,-1.08 -2.73,-5.33 -2.94,-7.49 0.7,0.33 4.1,5.93 6.13,6.16 -0.24,-1.11 -3.57,-4.67 -3.82,-6.28 0.06,0.01 4.79,4.06 7.95,4.15 -1.42,-1.42 -4.32,-2.33 -6.03,-4.3l4.06 2.02 -0.14 -1.04c1.39,0.06 2.58,0.51 4.04,0.21 -1.21,-0.83 -3.57,-0.99 -4.29,-2.32 1.3,0.05 1.7,0.53 3.46,0.31 4.99,-0.62 4.83,-5.47 5.26,-7.27 1.99,6.26 -1.78,6.6 -3.62,7.73 4.4,0.17 6.03,-4.37 4.73,-8.03 -0.8,-2.21 -4.26,-6.47 -6.29,-7.11 -0.79,-0.65 -1.28,-0.52 -2.19,-0.99 0.48,1.12 1.56,2.06 2.67,2.42l0 0zm3.05 -4.5c0.29,0.57 0.2,0.62 0.97,0.74 -0.33,-0.69 -0.22,-0.84 -0.97,-0.74zm9.07 7.07c1.27,-3.66 -1.57,-7.24 -3.83,-9.46 0.14,0.64 1.88,2.99 2.39,4.27 0.6,1.52 0.97,4.26 1.44,5.19zm43.03 -0.95c-1.36,-0.77 -3.37,-2.23 -4.67,-3.14 -1.59,-1.08 -2.97,-2.29 -4.44,-3.62 -2.35,-2.13 -6.52,-5.35 -9.96,-5.49 9.38,4.9 11.71,10.85 19.07,12.25l0 0zm-34.81 -10.02c0.41,0.77 1.65,2.05 2.23,2.94 3.59,5.41 4.62,10.55 10.76,15.32 1.45,1.12 4.67,2.9 6.53,2.9 -1.84,-0.62 -4.24,-2.7 -5.77,-3.93 -3.54,-2.82 -6.34,-9.41 -8.57,-12.4 -1.02,-1.37 -3.76,-4.39 -5.06,-4.99l-0.78 -0.41 0.66 0.57 0 0zm-113.17 19.5c7.8,0.02 12.57,-4.8 17.13,-6.99 -2.21,0.71 -5.64,2.89 -8.03,3.93 -5.05,2.22 -3.69,1.5 -8.09,2.62l-1.01 0.44 0 0zm131.44 -7.42c-0.14,-3.8 -1.06,-6.47 -3.15,-9.56 -1.37,-2.03 -3.95,-4.94 -6.02,-5.58 0.15,0.75 4.25,5.84 5.09,7.06 2.03,2.99 3.12,4.53 4.08,8.08zm-2.81 -16.49c2.62,0.45 10.42,5.36 11.94,7.07 0.38,0.51 -0.18,0.39 0.79,0.56 -0.12,-1.03 -0.1,-0.45 -0.48,-0.68 -1.86,-2.08 -2.5,-3.38 -5.03,-4.77 -1.75,-0.98 -4.65,-2.49 -6.66,-2.44 -0.71,-0.56 -1.79,-0.53 -2.74,-0.29l2.18 0.55zm14.9 6.9c-1.25,-5.27 -10.19,-10.87 -15.62,-10.02 0.82,0.5 3.36,1.12 4.66,1.73 4.21,1.93 7.99,4.56 10.96,8.29zm-145.05 8.33c3.26,-0.12 5.05,-0.21 8.26,-1.31 1.63,-0.56 6.46,-2.11 7.43,-2.76 -2.02,0.09 -5.79,1.43 -7.86,2.07 -2.68,0.82 -5.14,1.32 -7.83,2l0 0zm24.03 -2.64c-5.01,-0.53 -12.14,3.67 -17.73,4.55 -6.02,0.94 -11.19,-0.18 -16.4,-2.76 4.85,3.82 9.68,4.82 16.12,4.18 6.73,-0.67 11.19,-4.47 18.01,-5.97l0 0zm68.26 -10.87c1.08,-0.08 2.25,-0.9 2.49,-1.96 -1.38,0.02 -1.78,0.97 -2.49,1.96zm38.92 -7.12c4.24,0.88 8.86,3.97 11.92,6.82 2.5,2.32 7.17,8.86 7.56,12.13 -0.26,-5.27 -3.22,-9.93 -6.68,-13.57 -3,-3.18 -8.73,-5.93 -12.51,-5.66 -0.78,-0.43 -0.87,-0.35 -1.84,-0.09l1.55 0.37 0 0zm-15.92 5.51l-0.15 0.25c-1.7,-0.47 -3.74,-1.4 -5.56,-1.35 3.95,1.5 7.24,4.34 10.28,7.35 1.62,1.62 5.79,7.04 6.83,9.41l0.87 1.38c-0.13,-6.52 -8.68,-15.64 -10.93,-16.02 -0.38,-0.77 -0.43,-0.89 -1.16,-1.23 -1.01,-1.64 -5.41,-3.38 -7.38,-3.21 1.22,0.54 2.6,0.93 3.84,1.47 1.17,0.51 2.28,1.54 3.36,1.95l0 0zm-107.26 9.23c-1.03,-0.03 -3.93,1.05 -4.82,1.58 1.28,-0.02 3.2,-0.01 4.2,-0.67 1.25,-0.11 6.26,-0.94 7.16,-1.39 -0.35,-0.17 -0.45,-0.25 -0.83,-0.28 -0.64,-0.06 -4.38,0.75 -5.71,0.76l0 0zm114.5 -6.24c-0.71,-4.54 -9.49,-10.67 -16.12,-8.87 4.91,1.44 3.88,0.92 8.94,3.35 3.84,1.84 4.74,3.25 7.18,5.52zm13.61 -13.11c1.53,1.44 7.4,3.16 9.72,2.92 -1.53,-0.44 -3.27,-0.99 -4.93,-1.54 -1.23,-0.41 -3.66,-1.71 -4.72,-1.74 -0.56,-0.51 -1.7,-0.88 -2.47,-1.05 0.4,0.67 1.5,1.27 2.4,1.41zm-13.11 0.45l0.6 0.72c-0.51,0.2 -0.51,0 -1.01,0.59 -1.04,0.29 -1.91,0.99 -2.52,1.85 1.41,-0.29 2.08,-1.14 3.28,-1.49l0.13 0.09c0.03,1.23 -0.8,2.26 -1.48,3.14 1.16,-0.21 1.18,-0.85 2.2,-1.33 0.07,1.81 -2.08,2.94 -2.06,4.08l0.97 -0.55c0.51,-0.21 0.23,-0.16 0.39,0.07l0.17 0.22 -0.52 1.04c0.54,-0.3 0.45,-0.25 0.7,-0.92 1.98,-1.27 2.33,-6.3 1.71,-8.39 -2.25,-1.5 -6.92,-0.45 -8.99,0.84 3.16,2.19 3.17,-0.12 6.43,0.03l0 0.01zm-39.94 15.86l0.13 0.67c-1.1,0.24 -1.56,0.92 -2.22,1.73 -0.97,1.18 -5.91,3.23 -3.31,6.82 1.73,2.35 9.5,2.24 11.62,0.5 -1.81,-1.64 -5.42,-0.18 -6.93,-0.79 1.64,-0.84 5.92,-0.81 7.4,-1.25 -0.49,-2.33 -5.63,-0.74 -7.27,-0.87 1.06,-0.83 5.79,-1.5 7.21,-1.1 -0.56,-2.81 -4.85,-1.49 -6.85,-1.48 1.77,-0.81 3.76,-0.94 5.67,-1.24l0.9 0.33 -2.57 -2.02c1.67,-0.04 3.78,1.17 5.44,1.66 -0.37,-0.89 -1.44,-1.52 -2.39,-1.59 0.84,-1.23 4.81,1.59 5.59,1.59 -1.53,-2.32 -4.53,-2.55 -3.37,-3.13l4.52 1.79c0.19,0.25 0.23,0.63 0.74,0.39l-0.56 -0.59c-0.57,-1.09 -2.35,-1.44 -3,-2.2 1.75,-0.01 3.63,0.98 5.19,1.59 -0.53,-1.01 -1.45,-1.38 -2.27,-2.04 2.18,-0.46 2.25,0.57 3.75,0.89 -0.38,-1.48 -1.19,-1.16 -1.92,-2.26 1.61,-0.3 1.85,0.66 3,0.86 -0.48,-1.94 -1.01,-1.22 -1.61,-2.18 1.96,-0.19 4.06,1.63 5.17,3.17 1.59,2.2 1.8,3.95 2.82,6.27 1.03,-3.88 -2.7,-9.22 -6.2,-10.54 2.09,-0.44 2.56,0.79 4.21,1.2l2.09 2.15c-0.09,-0.88 -0.43,-1.87 -1.14,-2.34 -0.4,-1.6 -3.65,-3.32 -4.06,-3.93 1.11,-0.1 2.01,0.49 2.97,0.8 -0.36,-1.49 -3.56,-2.33 -4.85,-2.89 0.79,-0.45 1.73,-0.07 2.63,0 -0.21,-0.94 -2.94,-1.83 -3.87,-2.31l1.51 -0.08c-0.73,-1.34 -3.23,-1.47 -4.7,-1.71l0.4 -0.5c-8.06,0.59 -8.19,3.1 -10.16,3.26 -2.3,0.19 -2.81,0.4 -4.57,1.93 -0.96,0.82 -2.82,2.44 -1.67,3.75 0.06,-0.02 3.03,-1.9 3.04,-1.91 0.73,-0.76 1.19,-1.87 2.29,-2.31 -0.37,1.1 -1.26,2.13 -0.28,3.31 0.87,0.03 0.52,0.16 1.03,-0.79 0.45,0.96 -0.26,0.36 0.35,1.11 1.85,-0.81 3.24,-2 4.61,-3.46l-1.85 3.46c1.29,-0.18 2.21,-2.01 3.52,-2.58 1.2,-0.52 4.03,-0.61 5.19,-0.07l-1.12 1.41c1.08,0.42 2.29,0.1 2.92,0.78 -1.01,0.4 -2.2,0.42 -3.21,0.92 -1.02,0.51 -1.19,1.3 -2.07,1.83 -1.15,0.71 -2.21,0.4 -3.35,0.55 -2.18,0.28 0.8,0.65 -2.59,0.35 0.08,0.91 0.33,0.75 -0.08,1.57 -0.81,-0.29 -1.48,-1.01 -2.25,-1.46 -0.71,-0.39 -1.8,-0.61 -2.33,-1.06 1.32,-0.37 1.87,0.19 3.06,0.18 -3.44,-3.47 -4.2,-2.15 -7.73,0.1 -1.67,1.06 -6.44,3.77 -7.04,5.44 1.66,0.89 3.48,-0.99 5.38,-0.85 3,0.2 -0.87,0.83 5.04,-0.83l0 0zm31.97 -13.77l-0.14 0.19c-0.93,-0.02 -2.97,-0.57 -4.11,-0.74 -1.6,-0.23 -3.25,-0.48 -4.82,-0.03 0.53,0.36 8.27,1.22 9.48,1.19l3.31 1.11c-0.95,-1.53 -4.76,-3.67 -6.69,-4.23 -2.55,-0.74 -7.06,-1.2 -9.21,0.68 2.93,-0.34 9.63,-0.05 12.18,1.83l0 0zm1.9 -8.01l4 0.72 -2.33 0.15c-2.84,0.36 -9.27,0.36 -11.47,1.6 4.17,-0.12 8.29,-0.93 12.61,-0.74 5.12,0.23 8.4,2.06 9.91,2.05 -0.64,0 -4.67,-2.44 -6.74,-2.53 -0.91,-0.67 -3.99,-1.74 -5.15,-1.9 -5.39,-0.52 -11.25,-0.75 -15.05,3.5 3.06,-1.25 2.76,-1.83 6.67,-2.27 2.24,-0.26 5.64,-0.25 7.55,-0.58l0 0zm-121.69 26.62c0.53,0.39 0.66,0.25 1.42,0.21l1.99 -0.66c5.9,-1.56 12.01,-3.77 18.24,-3.07 1.77,0.19 3.31,0.77 4.9,0.97 -3.46,-1.97 -7.26,-2.33 -11.31,-1.87 -9.01,1.02 -13.56,7.04 -23.69,1.46 -4.15,-2.27 -4.51,-5.5 -5.24,-9.71 -0.2,4.29 0.96,7.07 4.22,9.48 2.38,1.77 6.3,3.71 9.47,3.19zm134.2 -26.17c-3.81,-1.69 -9.82,-3.92 -13.95,-4.21 -5.15,-0.34 -11.24,0.85 -14.24,5.42 2.39,-1.27 3.08,-2.37 6.11,-3.12 9.45,-2.36 14.74,0.74 22.08,1.91zm-41.31 -0.18c-0.65,-0.89 -1.35,2.72 -2.03,1.64 -0.6,-0.95 -1.37,-2.34 -1.83,-3.19 0.18,2.17 1.6,1.33 3.86,1.55l0 0zm33.7 -5.04c0.77,0.43 1.3,0.46 2.27,0.25l-1.89 -0.59c-2.9,-0.09 -6.13,-2.15 -13.3,-0.87 -5.49,0.97 -7.24,3.86 -9.79,6.3 -0.7,0.45 -1.39,1.76 -1.36,2.71 0.52,-1.22 1.34,-1.26 1.51,-2.33 3.76,-3.05 4.93,-4.19 9.94,-5.41 5.43,-1.33 7.63,-0.34 12.62,-0.06l0 0zm-33.29 -0.01c-0.44,1.42 -0.81,5.22 0.15,6.41l-0.15 -6.41zm11.5 1.85c-0.4,0.4 -0.37,-0.14 -0.28,0.8l0.62 -0.79c2.03,-1.82 4.1,-3.08 6.72,-3.98 4.79,-1.68 6.6,-1.06 9.24,-1.64 -3.85,-2 -14.54,1.41 -16.3,5.61l0 0zm-3.39 1.11c0.36,-1.35 1.83,-3.46 2.71,-4.55 0.66,-0.82 0.88,-1.31 1.7,-2.09 0.66,-0.64 1.43,-1.21 1.97,-1.8 -2.69,0.81 -6.65,5.51 -6.38,8.44zm0.15 -7.41c-3.12,2.19 -4.7,8.09 -2.52,11.38 0.01,-0.03 0.07,0.08 0.1,0.13 -0.12,-2.36 -0.16,-3.94 0.5,-6.24 0.3,-1.03 1.42,-4.16 2.11,-4.83 0.64,-0.48 0.5,-0.24 0.7,-1.15 -1.28,0.26 -0.72,0.15 -0.89,0.71l0 0z"/>
    <path class="fil1" d="M494.53 49.84c-1.07,-0.73 -0.75,-2.14 0.33,-2.74 2.15,-1.19 8.28,-1.87 11.03,-2 0.95,-0.05 2.17,-0.06 3.17,-0.15 6.04,-0.53 25.65,1.1 29.82,4.4 0.55,0.45 0.62,1.2 0.46,1.77l0.62 0.11c0.05,-0.27 0.08,-0.59 0.08,-0.96 0,-1.08 -0.36,-0.76 -0.41,-1.43 0.56,-0.51 1.74,-1.06 1.29,-2.34 -0.36,-0.99 -1.23,-0.89 -1.19,-2.45 0.58,-0.32 1.19,-0.75 1.21,-1.62 0.03,-0.89 -0.49,-1.24 -0.98,-1.71 0.09,-1.11 0.37,-0.73 0.99,-1.39 0.44,-0.47 0.66,-1.14 0.28,-1.8 -0.53,-0.92 -0.58,-0.29 -0.39,-1.83 0.1,-0.74 0.14,-1.32 0.36,-1.91 0.43,0.67 0.6,1.82 1.36,2.14 0.31,-4.34 2.03,-5.26 2.64,-6.65 0.86,-0.04 1.44,0.09 1.66,-0.64 0.32,-1.09 -0.42,-0.86 -0.36,-1.78 0.53,-0.04 0.93,0.06 1.24,-0.24 0.97,-0.88 -0.29,-1.64 -0.2,-2.2 0.2,-1.08 1.73,-4.27 2.25,-5.32 0.64,-1.27 1.32,-2.59 2.12,-3.98 0.41,-0.68 2.04,-3.3 2.15,-3.77 -1.48,0.15 -3.92,1.52 -4.9,2.35 -1.51,1.31 -2.28,2.56 -2.39,5.18 -0.7,-0.07 -1.01,-0.53 -1.98,-0.46 -1.58,0.11 -3.62,1.56 -3.87,3.29 0.72,-0.23 1.06,-0.67 2.04,-0.85 0.86,-0.15 1.76,0.15 1.89,0.89 0.05,0.28 0.01,1.08 -0.09,1.36 -0.16,0.56 -0.29,0.35 -0.74,0.66 -0.98,0.68 0.06,1.48 0.05,2.05 -0.52,0.17 -1.2,0.01 -1.46,0.59 -0.41,0.93 0.17,1.04 0.38,1.61 -1.21,2.26 -6.89,4.83 -8.73,1.81 -0.29,-0.47 -0.43,-1.1 -0.09,-1.67 0.43,-0.68 0.78,-0.43 1.56,-0.49l0.66 -7.89c-0.49,0.16 -2.99,2.3 -3.54,2.73 -0.66,0.51 -3.11,2.3 -3.3,2.89 0.46,0.01 0.97,0.01 1.28,0.21 0.52,1.62 -1.63,2.78 -2.63,3.01 -1.59,0.35 -3.63,0.18 -4.97,-0.51 -0.89,-0.47 -2.91,-1.92 -3.08,-2.72 -0.09,-0.41 0.06,-0.86 -0.03,-1.33 -0.16,-0.78 -0.28,-0.43 0.12,-1.05 0.75,-1.2 -0.37,-1.42 -0.5,-1.88 0.09,-0.62 0.76,-0.29 0.84,-1.25 0.06,-0.75 -0.33,-0.86 -0.74,-1.22 0.06,-1.37 1.32,-2.6 2.67,-2.81 2.66,-0.42 2.55,1.11 3.73,1.61 -0.16,-1.76 -0.33,-2.86 -1.38,-3.99 -1.59,-1.73 -3.04,-0.55 -3.97,-0.43 0.14,-0.99 0.7,-2.05 0.79,-3.02 0.13,-1.22 -0.1,-2 -0.45,-3.04 -0.36,-1.07 -1.73,-4.34 -2.32,-4.85 -0.61,0.41 -2.32,3.63 -2.76,4.62 -1.44,3.24 -0.46,3.14 -0.27,6.02 -0.77,-0.24 -1.27,-0.72 -2.27,-0.65 -0.73,0.05 -1.28,0.34 -1.77,0.79 -1,0.89 -1.37,2.1 -1.67,3.78 0.58,-0.19 0.83,-0.82 1.61,-1.14 2.1,-0.82 4.62,0.59 4.64,3 -1.95,0.76 -0.11,2.2 -0.16,2.42 -0.11,0.61 -1.34,0.29 -0.57,1.98 0.28,0.62 0.01,0.48 -0.11,1.06 -0.09,0.49 0.05,0.92 -0.18,1.34 -0.4,0.73 -2.42,1.93 -3.32,2.27 -1.3,0.5 -3.52,0.5 -4.98,-0.05 -0.98,-0.37 -2.97,-1.63 -2.27,-3.2 0.32,-0.16 0.83,-0.11 1.29,-0.09 -0.12,-0.68 -0.95,-1.18 -1.47,-1.66l-3.1 -3.03c-0.51,-0.5 -1.08,-1.26 -1.75,-1.5 -0.06,2.1 -0.03,4.28 -0.08,6.46 -0.05,2.79 0.26,0.72 1.3,1.71 0.67,0.65 0.37,1.58 -0.17,2.16 -1.24,1.36 -3.26,1.06 -4.99,0.3 -1.27,-0.55 -2.75,-1.84 -3.41,-3.1 0.26,-0.41 0.89,-0.66 0.58,-1.55 -0.24,-0.66 -0.91,-0.5 -1.4,-0.73 0.05,-0.54 1.2,-1.29 0.17,-2.1 -0.34,-0.26 -0.56,-0.16 -0.64,-0.87 -0.16,-1.56 0.7,-2.37 2.32,-1.77 0.62,0.23 1.35,0.93 1.82,1.01 -0.55,-1.78 -1.64,-3.16 -3.52,-3.65 -0.89,-0.23 -1.31,0.13 -2.15,0.18 0.16,-2.43 -0.59,-4 -1.94,-5.34 -0.88,-0.89 -3.09,-2.51 -4.65,-2.81 0.07,0.49 1.55,3.43 1.82,4.01 0.61,1.32 1.16,2.71 1.69,4.11 0.52,1.3 1.09,2.98 1.45,4.35 0.56,2.19 0.16,1.06 -0.27,2.13 -0.62,1.58 1.02,1.32 1.29,1.64 0.42,0.44 -0.58,0.45 -0.45,1.55 0.09,0.75 0.66,0.81 1.47,0.88l0.49 0.7c1.24,1.78 1.68,3.94 1.65,6.18 0.88,-0.27 1.03,-1.45 1.53,-2.07 0.24,0.66 0.16,1.23 0.19,2.03 0.08,1.53 0.02,0.94 -0.56,1.77 -0.46,0.66 -0.22,1.35 0.11,1.82 0.43,0.59 0.9,0.4 0.86,1.47 -1.46,1.16 -1.64,2.17 -0.08,3.33 -0.13,1.69 -1.09,1.48 -1.46,2.42 -0.52,1.39 0.87,1.85 1.13,2.49 -0.35,0.75 -0.5,0.17 -0.58,1.5 -0.04,0.87 0.04,1.41 0.43,1.83 0.25,-0.1 0.52,-0.2 0.78,-0.29l0 0zm1.79 -4.07l0.06 -1.07c0.41,-0.16 0.87,-0.33 1.36,-0.34l-0.07 1.08 -1.35 0.33zm2.52 -0.64l0.01 -1.05c0.53,-0.26 1.77,-0.46 2.44,-0.42l-0.05 1.13 -1.21 0.22 -0.29 -0.74c-0.38,0.54 0.1,1.01 -0.9,0.86l0 0zm11.21 -0.95c0.01,-0.93 -0.23,-1.52 0.85,-1.21l-0.06 1.29 -0.79 -0.08zm-2.06 -1.15l-0.11 1.3c-1.69,0.08 -1.52,0.07 -1.9,-0.49 -0.28,0.47 0.02,0.27 -0.39,0.58 -0.26,-0.37 -0.16,-0.91 -0.03,-1.33l2.43 -0.06zm25.27 3.43c-0.71,-0.18 -2.1,-0.47 -2.86,-0.58 -1.78,-0.27 -3.93,-0.75 -5.73,-0.91l-9.52 -0.66c-0.53,-0.03 -1.16,-0.02 -1.66,-0.07 -0.83,-0.07 -0.53,-0.1 -0.78,-0.81 -0.01,0.04 -0.05,0.14 -0.07,0.19 -0.27,0.7 -0.03,0.52 -0.48,0.57l0.07 -1.28 4.91 0.14 0.02 1.1 3.07 0 0.13 -0.89 1.14 0.1c0.29,1.02 -0.86,0.91 2.95,1.19 0.19,-0.26 0.2,-0.56 0.25,-0.81 0.4,-0.02 0.54,-0.07 0.61,0.19 0.03,0.13 -0.06,0.5 0.08,0.75 1.01,0.18 0.6,0.14 0.84,-0.42 0.15,-0.35 -0.02,-0.46 0.51,-0.28l0.02 0.83c0.47,0.29 1.36,0.42 1.98,0.41l0.11 -0.9 0.76 0.07 0.04 0.8c2.32,0.74 2.91,0.59 6.24,1.82 -0.21,0.16 0.27,0.11 -0.35,0.1 -0.18,-0.01 -0.15,-0.03 -0.3,-0.07l-1.98 -0.58 0 0zm-36.59 -10.49c0.31,-0.08 0.56,-0.28 0.99,-0.23 0.09,1.15 0.14,5.15 -0.06,6.17l-1.1 0.17 0.17 -6.12 0 0.01zm2.28 -0.61c0.28,-0.17 1.78,-0.5 2.18,-0.39l0.05 6.32 -1.26 0.15 -0.48 -2.95 -0.2 3.1 -0.41 -0.02 0.12 -6.21 0 0zm10.89 5.3c-0.04,-0.91 -0.2,-6.04 -0.07,-6.52 1.06,-0.01 1.27,-0.31 1.25,0.72 -0.02,1.3 0,4.99 -0.21,5.86l-0.97 -0.06 0 0zm-4.31 0.21c-0.27,-0.12 -0.34,0.35 -0.28,-1.14 -0.77,0.21 -1.33,0.85 -2.42,0.31 -2.09,-1.01 -1.1,-5.1 2.3,-3.34 0.09,-0.84 -0.17,-1.46 0.01,-2.22 0.58,-0.26 1.77,-0.21 2.51,-0.16l0.16 6.47 -1.59 -0.07 -0.26 -4.55c-0.52,1.06 0.03,3.85 -0.43,4.7zm6.86 -6.64c1.49,-0.52 10.82,0.38 12.77,0.69 0.91,0.14 2.16,0.34 3.03,0.4 0.93,0.08 2.01,0.38 2.93,0.55l5.28 1.38c-0.38,0.14 -4.11,-1.1 -5.41,-1.14 -0.2,0.34 -0.26,0.92 -0.24,1.29 2.83,0.82 2,3.43 0.62,4.02 -0.16,0.06 -0.21,0.06 -0.34,0.11l1.2 0.67c1.86,0.47 2.85,0.87 4.59,1.56l-11.03 -2.24c-2.14,-0.24 -4.2,-0.45 -6.35,-0.55 -2.06,-0.1 -4.49,-0.11 -6.48,-0.34l-0.16 -5.14 -0.39 5.03c-0.25,-0.31 -0.23,-1.05 -0.23,-1.46l0.21 -4.83 0 0zm-18.6 1.99c-0.29,-2.26 9.65,-3.43 11.52,-3.43 2.82,0.01 5.24,-0.34 8.62,-0.22 2.08,0.08 4.16,0.19 6.24,0.3 1.75,0.09 4.12,0.25 5.8,0.54 3.01,0.53 4.97,0.62 8.08,1.45 0.84,0.21 1.72,0.55 2.42,0.7 -0.26,0.18 0.34,0.2 -0.49,0.11l-1.24 -0.35c-2.04,-0.55 -3.33,-0.68 -5.32,-1.02 -0.76,-0.13 -6.62,-0.87 -7.4,-0.73 -0.37,0.07 -0.21,0.01 -0.42,0.18l2.34 0.24c-2.1,-0.02 -3.97,-0.31 -6.04,-0.41 -4.84,-0.22 -7.48,0.01 -11.92,0.07 -1.63,0.03 -4.19,0.66 -5.57,0.45 -0.15,0.25 -0.01,0.21 -0.24,0.21 -0.28,0 -0.08,-0.05 -0.47,-0.09 -0.86,-0.11 -4.25,0.82 -5.3,1.6 -0.25,0.19 -0.34,0.31 -0.62,0.4l0.01 0zm2.65 -2.75c-0.19,-0.39 -0.38,-1.42 -0.35,-1.98 1.63,0.18 1.38,0.19 1.37,1.73l-1.02 0.25 0 0zm2.59 -1.76c0.41,-0.08 1.24,-0.23 1.59,-0.17l-0.02 1.06c-0.63,0.13 -1.01,0.38 -1.28,-0.23 -0.3,0.08 -0.02,-0.05 -0.23,0.18 -0.11,0.13 0.24,0 -0.18,0.25l0.12 -1.09 0 0zm12.08 -1.34l-0.11 1.54 -1.41 0 0.04 -1.52 1.48 -0.02zm-8.53 -0.35c0.14,-0.47 0.31,-0.63 0.49,-1.14l0.36 -1.23c0.76,0.64 0.82,0.94 1.74,1.5 0.59,0.36 1.06,0.57 1.7,0.79 0.82,0.29 0.82,1.24 0.55,2.09l-1.6 -0.01c-0.31,-0.47 -0.17,-0.73 -0.54,-1.21 -0.05,0.48 0.04,0.99 -0.16,1.31 -0.49,-0.07 -0.41,-0.25 -0.56,-0.74 -0.22,-0.69 -0.85,-2.4 -0.9,-2.92 -0.5,0.53 -0.39,1.18 -1.08,1.56l0 0zm9.8 0.19c0.16,-0.31 -0.01,-0.17 0.45,-0.36 2.64,-1.07 1.48,-0.8 3.32,-1.9 0.49,0.42 0.77,1.28 1.47,1.61 0.73,-0.31 1.07,-1.09 1.59,-1.47 0.29,0.2 0.56,0.53 0.87,0.79 1.82,1.56 3.62,2.11 6.07,2.2 0.61,0.02 1.04,0.04 1.61,-0.05 0.69,-0.11 0.86,-0.25 1.08,-0.15 -2.27,0.98 -5.51,0.62 -7.83,-0.85 -0.65,-0.42 -1.25,-1.03 -1.82,-1.38 -0.34,0.14 -0.68,0.61 -0.93,0.82 -0.83,0.7 -0.67,0.77 -0.73,2.48 2.29,0.04 4.63,0.11 6.92,0.3 1.9,0.15 3.21,0.48 4.69,0.62 0.7,0.07 0.62,0.25 1.43,0.24 0.11,-0.91 0.19,-1.6 0.31,-2.39 0.07,-0.5 -0.08,-1.26 1.06,-1.63l-0.53 4.15c0.69,0.21 1.41,0.4 2.11,0.63 0.29,0.11 0.34,0.04 0.58,0.21 -0.39,0.12 -1.77,-0.27 -2.26,-0.39 -1.1,-0.28 -3.5,-0.52 -5,-0.83 -0.92,-0.2 -1.83,-0.16 -2.75,-0.28 -3.97,-0.52 -7.63,-0.36 -10.94,-0.69l-0.31 -1.18c-0.08,0.26 -0.05,0.36 -0.09,0.59 -0.17,0.76 0.1,0.32 -0.31,0.53 -0.19,-0.41 -0.1,-0.7 -0.06,-1.62l0 0zm4.15 -4.22c0.06,-1.24 0.2,-1.76 0.72,-2.78 0.19,0.19 0.21,0.14 0.28,0.68 0.15,1.07 0.15,2.31 0.2,3.4 -0.04,0.65 -0.1,0.6 0.25,1.14 -0.11,0.08 -0.16,0.08 -0.32,0.18 -0.34,-0.19 -0.4,-0.36 -0.63,-0.69 -0.6,-0.94 -0.95,-1.72 -0.77,-2.88 -0.05,0.32 0.11,0.76 0.27,0.95l0 0zm-26.61 -0.97c0.24,-0.85 1.66,-0.96 2.47,-0.76l-0.11 0.57c-0.42,0.05 -0.9,0.05 -1.22,0.15 -0.58,0.2 -0.63,0.41 -1.14,0.04zm10.69 0.22c-0.43,-0.47 -0.17,-4.49 -0.08,-5.34 0.58,0.36 0.37,1.87 1.87,3.43 0.32,0.32 0.42,0.3 0.6,0.8 0.27,0.74 0.49,2.19 1.15,2.63 -0.43,-1.57 -1.05,-1.8 0.07,-3.2l-2.06 -2.37c0.38,0.27 2.35,2.13 2.46,2.53 -1.15,0.71 -0.53,2.37 0.26,3.2 2.09,2.21 6.34,2.24 8.93,0.64 1.3,-0.81 -0.12,-0.04 1.32,-0.38 -0.4,0.7 -2.64,1.96 -3.69,2l0.33 0.33c-0.37,0.01 -0.58,-0.02 -0.89,0.06 -0.35,0.08 -0.28,0.12 -0.81,0.11 -6.24,-0.08 -6.5,-3.62 -7.56,-5.35 -0.17,-0.26 -0.08,-0.13 -0.26,-0.31 -0.02,1.05 0.92,3.4 0.22,4.33 -0.15,0.2 -0.32,0.26 -0.57,0.59 -0.49,0.63 -1.18,1.38 -1.99,1.56 0.08,0.17 0.18,0.21 0.34,0.33 -0.55,-0.01 -1.13,0.23 -1.82,0.26 -0.76,0.04 -1.29,-0.17 -2.01,-0.21 0.17,-0.26 -0.01,-0.17 0.34,-0.28l-2.02 -1.09c0.58,-0.5 0.77,-0.16 1.43,0.08 4.65,1.64 6.92,-1.78 5.53,-3.61 -0.57,-0.75 -0.47,-0.27 -0.55,-1.57 -0.02,-0.24 -0.14,-1.53 -0.19,-1.7 -0.36,0.52 0.03,2.03 -0.35,2.53l0 0zm30.49 -0.23c0.06,-0.5 4.19,-3.56 4.35,-3.61 -0.21,0.76 -0.75,1.66 -1.14,2.47 -0.7,1.47 -0.61,0.99 -1.3,2.17 -1.08,1.84 -1.38,2.67 -3.19,3.66 -1.55,0.83 -4.01,1.03 -5.89,0.49 -2.57,-0.76 -3.02,-1.73 -4.32,-2.59 0.05,-0.49 0.08,-0.66 0.39,-1.08 0.38,0.24 0.48,0.43 0.83,0.76 1.97,1.88 5.02,2.65 7.72,1.88 1.36,-0.38 2.73,-1.32 2.98,-2.63 0.29,-1.6 -0.11,-0.9 0.92,-1.99l1.32 -1.41c-0.58,0.29 -2.21,1.91 -2.67,1.88l0 0zm-42.55 -5.87c-0.56,-1.73 -0.19,-4.09 -0.97,-5.75 -0.9,-1.95 -2.62,-3.41 -2.83,-3.89 0.55,0.14 1.6,1.02 1.94,1.32 1.24,1.11 2.23,2.32 2.21,4.25 -0.01,1.7 -0.35,2.49 -0.34,2.94 0.75,-0.4 1.11,-1.34 2.43,-1.41 0.9,-0.05 2.4,0.69 2.49,1.24 -0.96,-0.05 -2.38,-0.27 -2.83,0.97l-0.29 0.96c-0.02,-1.68 0.17,-1.72 1.46,-2.42 -2.74,-0.23 -2.55,1.47 -3.27,1.79l0 0zm28.83 -3.11c-0.07,-0.9 -0.43,-1.83 -0.65,-2.81 -0.81,-3.77 -1.05,-4.41 0.84,-7.78 0.16,0.26 0.02,0.44 -0.12,0.73 -0.61,1.36 -1.19,2.44 -1.02,3.84 0.04,0.4 0.13,1.26 0.27,1.55 0.06,-0.11 0.08,-0.62 0.1,-0.78 -0.24,-2.02 0.04,-2.34 1.13,-4.32l0.33 -0.51c0.14,0.27 0.06,0.01 0.11,0.38l-0.03 5.54c-0.02,1.19 0.11,0.55 0.21,1.31 0.13,1.01 -0.71,3.49 -0.25,4.31 0.29,-0.52 0.7,-1.98 0.95,-2.65 2.76,-7.08 0.61,-7.27 1,-8.47 1.05,2.24 0.87,3.16 0.38,5.06 -0.25,0.96 -0.48,1.61 -0.78,2.46 -0.28,0.79 -0.87,2.01 -0.64,2.38 2.93,-5.37 5.92,-2.24 5.88,-0.94 -1.74,-2.5 -3.95,-2.1 -5.54,0.86 -0.38,0.7 -0.7,1.56 -1.05,2.18l-0.83 -0.01c-0.45,-0.62 -0.36,-2.22 -2,-3.4 -0.93,-0.67 -1,-0.47 -1.95,-0.37 -0.44,0.05 -0.76,-0.04 -1.23,0.04 -0.38,0.07 -0.72,0.2 -1.1,0.28 0.31,-1.4 1.81,-2.6 3.43,-1.86 1.67,0.76 1.67,2.38 2.56,2.98l0 0z"/>
    <path class="fil2" d="M495.21 49.33c0.05,0.1 0.1,0.17 0.18,0.24 0.73,-0.2 1.41,-0.3 2.03,-0.33 -0.02,-0.09 -0.04,-0.17 -0.07,-0.28 0.38,0.08 0.75,0.18 1.11,0.31 0.7,0.07 1.34,0.24 1.91,0.51 1.44,-0.19 2.73,-0.32 3.7,-0.41l7.92 -0.27c4.67,-0.11 9.4,0.93 14.07,1.27 0.24,0.01 0.48,0.02 0.68,0.05l5.28 0.34c0.29,0.03 0.58,0.07 0.85,0.12 1.67,-0.29 3.56,-0.19 5.25,0.05 -0.23,-2.1 -8.34,-3.39 -10.14,-3.67 -4.1,-0.64 -9.13,-0.87 -13.4,-1.08 -0.77,-0.05 -0.6,0.06 -0.91,-0.41 -0.54,0.28 0.08,0.37 -0.96,0.35 -4.2,-0.09 -12.63,0.1 -16.17,1.59 -0.76,0.32 -1.39,0.63 -1.33,1.62l0 0z"/>
    <path class="fil3" d="M495.21 49.33c-0.06,-0.99 0.57,-1.3 1.33,-1.62 3.54,-1.49 11.97,-1.68 16.17,-1.59 1.04,0.02 0.42,-0.07 0.96,-0.35 0.31,0.47 0.14,0.36 0.91,0.41 4.27,0.21 9.3,0.44 13.4,1.08 1.8,0.28 9.91,1.57 10.14,3.67l1.22 0.19c0.16,-0.57 0.09,-1.32 -0.46,-1.77 -4.17,-3.3 -23.78,-4.93 -29.82,-4.4 -1,0.09 -2.22,0.1 -3.17,0.15 -2.75,0.13 -8.87,0.81 -11.03,2 -1.08,0.6 -1.4,2.01 -0.33,2.74 0.29,-0.1 0.57,-0.19 0.86,-0.27 -0.08,-0.07 -0.13,-0.14 -0.18,-0.24l0 0zm3.25 -0.06c-0.36,-0.13 -0.73,-0.23 -1.11,-0.31l1.11 0.31z"/>
    <path class="fil4" d="M530.24 37.82c2.15,-0.59 3.03,2.9 0.7,3.4 -2.01,0.44 -3.17,-2.72 -0.7,-3.4zm-13.7 -1.83c1.96,-1.08 3.49,2.18 1.46,3.12 -0.98,0.45 -2.04,-0.09 -2.35,-0.81 -0.54,-1.21 0.22,-1.94 0.89,-2.31l0 0zm9.81 -0.43c0.14,-0.07 -0.08,-0.04 0.31,-0.08l0.75 0.04c-0.05,0.87 -0.54,4.92 -0.79,5.56l-0.92 -0.07 0.65 -5.45 0 0zm0.97 5.71c-0.1,-0.68 0.29,-3.2 0.41,-3.99 0.34,-2.15 -0.1,-1.68 2.24,-1.44 0.08,0.4 -0.01,1.39 -0.21,1.71 -0.15,0.22 -1.75,0.93 -1.2,2.62 0.09,0.24 0.18,0.4 0.33,0.6 0.38,0.48 0.28,0.06 0.35,0.7l-1.92 -0.2 0 0zm-5.37 -0.61c-0.07,-0.75 0.29,-3.51 0.38,-4.51 0.1,-1.16 -0.1,-1.36 1.14,-1.13 0.67,0.12 1.42,0.11 2.13,0.25l-0.64 5.67 -3.01 -0.28zm-4.62 -0.08l0.07 -0.92c0.41,-0.22 1.82,-0.48 1.89,-2.03 0.06,-1.6 -1.21,-1.88 -1.71,-2.09l0.03 -0.99 3.21 0.25 -0.28 5.77 -3.21 0.01zm-4.94 -6.35l-0.21 4.83c0,0.41 -0.02,1.15 0.23,1.46l0.39 -5.03 0.16 5.14c1.99,0.23 4.42,0.24 6.48,0.34 2.15,0.1 4.21,0.31 6.35,0.55l11.03 2.24c-1.74,-0.69 -2.73,-1.08 -4.59,-1.56l-1.2 -0.67c0.13,-0.05 0.18,-0.05 0.34,-0.11 1.38,-0.59 2.21,-3.2 -0.63,-4.02 -0.01,-0.37 0.05,-0.95 0.24,-1.29 1.31,0.04 5.04,1.28 5.42,1.14l-5.28 -1.38c-0.92,-0.17 -2,-0.47 -2.93,-0.55 -0.88,-0.06 -2.12,-0.26 -3.04,-0.4 -1.94,-0.31 -11.27,-1.21 -12.76,-0.69l0 0z"/>
    <path class="fil5" d="M517.38 16.03c-0.89,-0.6 -0.89,-2.22 -2.56,-2.98 -1.62,-0.74 -3.13,0.46 -3.43,1.86 0.38,-0.08 0.72,-0.21 1.1,-0.28 0.47,-0.08 0.79,0.01 1.23,-0.04 0.95,-0.1 1.02,-0.3 1.95,0.37 1.64,1.18 1.55,2.79 2,3.4l0.83 0.01c0.35,-0.62 0.67,-1.48 1.05,-2.18 1.59,-2.96 3.8,-3.36 5.54,-0.86 0.04,-1.3 -2.95,-4.43 -5.89,0.94 -0.22,-0.37 0.37,-1.58 0.65,-2.38 0.3,-0.84 0.53,-1.5 0.78,-2.46 0.49,-1.89 0.67,-2.82 -0.38,-5.06 -0.39,1.21 1.76,1.39 -1,8.47 -0.25,0.67 -0.66,2.13 -0.95,2.66 -0.46,-0.83 0.38,-3.31 0.25,-4.32 -0.1,-0.76 -0.23,-0.12 -0.21,-1.31l0.03 -5.54c-0.05,-0.37 0.03,-0.11 -0.11,-0.38l-0.34 0.5c-1.08,1.99 -1.36,2.31 -1.12,4.33l-0.07 0.69c-0.01,0.03 -0.02,0.06 -0.03,0.09 -0.14,-0.29 -0.23,-1.15 -0.27,-1.55 -0.17,-1.4 0.41,-2.48 1.02,-3.84 0.14,-0.29 0.28,-0.47 0.12,-0.73 -1.89,3.37 -1.65,4.01 -0.84,7.78 0.22,0.98 0.58,1.91 0.65,2.81l0 0z"/>
    <path class="fil3" d="M493.79 36.22c0.27,-0.09 0.35,-0.21 0.61,-0.4 1.05,-0.78 4.45,-1.71 5.3,-1.6 0.39,0.04 0.19,0.09 0.47,0.09 0.23,0 0.09,0.03 0.25,-0.21 1.37,0.21 3.93,-0.42 5.56,-0.45 4.44,-0.06 7.08,-0.29 11.92,-0.07 2.07,0.1 3.94,0.39 6.04,0.41l-2.34 -0.24c0.22,-0.17 0.05,-0.11 0.42,-0.18 0.78,-0.14 6.64,0.6 7.4,0.73 1.99,0.34 3.28,0.47 5.32,1.02l1.24 0.35c0.83,0.09 0.23,0.07 0.49,-0.11 -0.7,-0.16 -1.58,-0.49 -2.42,-0.7 -3.11,-0.83 -5.07,-0.92 -8.08,-1.45 -1.68,-0.3 -4.05,-0.45 -5.8,-0.54 -2.07,-0.11 -4.16,-0.22 -6.24,-0.3 -3.38,-0.12 -5.8,0.23 -8.62,0.22 -1.87,0 -11.81,1.17 -11.52,3.43l0 0z"/>
    <path class="fil6" d="M500.61 25.24c0.01,-0.04 0.04,-0.12 0.05,-0.1 0,0.01 0.03,-0.07 0.04,-0.09 0.14,-0.45 0.07,-0.51 0.07,-1.04l0.07 -1.04c0.11,-0.37 0.05,-0.16 0.12,-0.26 0.05,0.17 0.17,1.46 0.18,1.7 0.09,1.3 -0.01,0.82 0.56,1.57 1.39,1.84 -0.88,5.25 -5.53,3.61 -0.15,-0.06 -0.73,-0.31 -0.79,-0.32 -0.28,-0.08 -0.37,0 -0.64,0.24l2.02 1.09c-0.35,0.11 -0.17,0.03 -0.35,0.28 0.73,0.04 1.26,0.24 2.01,0.21 0.7,-0.04 1.28,-0.27 1.83,-0.26l-0.21 -0.17c-0.16,-0.15 -0.03,0.04 -0.13,-0.16 0.55,-0.12 1.11,-0.58 1.45,-0.91 0.17,-0.18 0.39,-0.45 0.54,-0.65 0.24,-0.33 0.42,-0.4 0.57,-0.59 0.7,-0.93 -0.24,-3.28 -0.22,-4.33 0.18,0.18 0.08,0.05 0.25,0.31 1.06,1.72 1.33,5.27 7.56,5.35 0.54,0.01 0.47,-0.03 0.82,-0.11 0.31,-0.08 0.52,-0.05 0.89,-0.06l-0.34 -0.33c1.06,-0.04 3.3,-1.3 3.7,-2.01 -1.44,0.35 -0.02,-0.42 -1.32,0.39 -2.59,1.6 -6.84,1.57 -8.93,-0.64 -0.79,-0.83 -1.41,-2.49 -0.26,-3.2 -0.11,-0.4 -2.08,-2.26 -2.46,-2.53l2.06 2.37c-1.11,1.4 -0.49,1.63 -0.07,3.2 -0.66,-0.44 -0.89,-1.89 -1.15,-2.63 -0.19,-0.51 -0.28,-0.48 -0.6,-0.8 -1.5,-1.56 -1.29,-3.07 -1.87,-3.44 -0.09,0.86 -0.36,4.88 0.08,5.35l0 0z"/>
    <path class="fil7" d="M512.38 30.21c-0.04,0.92 -0.14,1.21 0.05,1.62 0.42,-0.21 0.15,0.23 0.32,-0.53 0.04,-0.23 0.01,-0.33 0.09,-0.59l0.31 1.18c3.31,0.33 6.97,0.17 10.94,0.68 0.92,0.13 1.82,0.09 2.75,0.29 1.5,0.31 3.9,0.55 5,0.83 0.48,0.12 1.87,0.51 2.26,0.39 -0.25,-0.17 -0.29,-0.11 -0.58,-0.21 -0.29,-0.09 -0.32,-0.12 -0.65,-0.2l-1.47 -0.43 0.54 -4.15c-1.14,0.38 -0.99,1.13 -1.06,1.63 -0.13,0.79 -0.21,1.48 -0.31,2.39 -0.81,0.01 -0.73,-0.17 -1.43,-0.24 -1.48,-0.14 -2.79,-0.47 -4.69,-0.62 -2.29,-0.19 -4.63,-0.26 -6.92,-0.3 0.06,-1.71 -0.11,-1.78 0.72,-2.48 0.26,-0.21 0.6,-0.68 0.94,-0.82 0.57,0.35 1.16,0.96 1.82,1.38 2.32,1.47 5.56,1.83 7.83,0.85 -0.22,-0.1 -0.39,0.04 -1.08,0.15 -0.57,0.09 -1,0.07 -1.61,0.05 -2.45,-0.09 -4.25,-0.65 -6.08,-2.21 -0.3,-0.24 -0.56,-0.58 -0.86,-0.78 -0.52,0.38 -0.86,1.16 -1.6,1.47 -0.69,-0.33 -0.97,-1.19 -1.45,-1.61 -1.85,1.11 -0.69,0.83 -3.33,1.9 -0.46,0.19 -0.29,0.05 -0.46,0.36l0.01 0z"/>
    <path class="fil8" d="M531.1 25.01c0.46,0.03 2.09,-1.59 2.67,-1.88l-1.32 1.41c-1.03,1.09 -0.63,0.39 -0.93,1.99 -0.24,1.31 -1.61,2.25 -2.97,2.63 -2.7,0.77 -5.75,0 -7.72,-1.88 -0.35,-0.33 -0.45,-0.52 -0.83,-0.76l-0.12 0.16c-0.01,0.01 -0.14,0.27 -0.14,0.27 -0.14,0.39 -0.09,0.24 -0.13,0.65 1.3,0.86 1.75,1.83 4.32,2.59 1.88,0.54 4.34,0.34 5.89,-0.49 1.81,-0.99 2.11,-1.82 3.19,-3.66 0.69,-1.18 0.6,-0.7 1.3,-2.17 0.39,-0.81 0.93,-1.71 1.14,-2.47 -0.16,0.05 -4.29,3.11 -4.35,3.61z"/>
    <path class="fil2" d="M521.95 40.66l3.01 0.28 0.64 -5.67c-0.71,-0.14 -1.46,-0.13 -2.13,-0.25 -1.24,-0.23 -1.04,-0.03 -1.14,1.13 -0.09,1 -0.45,3.76 -0.38,4.51z"/>
    <path class="fil9" d="M501.99 38.58c-0.46,-2.27 3.08,-2.92 3.48,-0.62 0.4,2.31 -3.06,2.7 -3.48,0.62zm3.15 -4.1c-0.18,0.76 0.08,1.38 -0.01,2.22 -2.12,-1.1 -3.41,0.02 -3.39,1.64 0.01,0.76 0.49,1.42 1.08,1.7 1.1,0.53 1.66,-0.1 2.43,-0.31 -0.06,1.49 0.01,1.02 0.28,1.14 0.46,-0.85 -0.09,-3.64 0.43,-4.7l0.26 4.55 1.59 0.07 -0.16 -6.47c-0.74,-0.05 -1.93,-0.1 -2.51,0.16z"/>
    <path class="fil5" d="M512.16 44.2c0.45,-0.06 0.21,0.12 0.48,-0.58 0.01,-0.03 0.02,-0.07 0.03,-0.09 0.01,-0.03 0.03,-0.06 0.04,-0.1 0.25,0.71 -0.05,0.74 0.78,0.81 0.5,0.05 1.13,0.04 1.66,0.07l9.52 0.66c1.8,0.16 3.95,0.64 5.73,0.91 0.76,0.11 2.15,0.4 2.86,0.58l1.98 0.58c0.15,0.05 0.12,0.06 0.3,0.07 0.62,0.01 0.14,0.06 0.35,-0.09 -3.33,-1.24 -3.92,-1.08 -6.24,-1.83l-0.04 -0.79 -0.76 -0.07 -0.11 0.9c-0.62,0.01 -1.51,-0.13 -1.98,-0.41l-0.02 -0.84c-0.54,-0.18 -0.37,-0.07 -0.52,0.28 -0.23,0.56 0.18,0.61 -0.83,0.43 -0.14,-0.26 -0.05,-0.63 -0.08,-0.76 -0.07,-0.26 -0.21,-0.21 -0.61,-0.19 -0.05,0.25 -0.06,0.55 -0.25,0.81 -3.81,-0.28 -2.66,-0.17 -2.95,-1.19l-1.14 -0.1 -0.14 0.9 -3.06 -0.01 -0.02 -1.1 -4.91 -0.14 -0.08 1.29 0.01 0z"/>
    <path class="fil10" d="M517.58 35.54c0.5,0.21 1.77,0.49 1.71,2.08 -0.07,1.56 -1.48,1.81 -1.89,2.04l-0.07 0.92 3.21 -0.01 0.28 -5.77 -3.21 -0.25 -0.03 0.99z"/>
    <path class="fil11" d="M498.95 35.36l-0.12 6.21 0.41 0.02 0.2 -3.1 0.48 2.95 1.26 -0.15 -0.06 -6.32c-0.39,-0.11 -1.89,0.22 -2.17,0.39l0 0z"/>
    <path class="fil12" d="M488.55 19.14c0.72,-0.32 0.53,-2.02 3.27,-1.79l-0.63 0.34c-0.29,0.15 -0.34,0.2 -0.52,0.43 -0.37,0.47 -0.31,1.05 -0.31,1.65l0.29 -0.97c0.45,-1.23 1.87,-1.01 2.83,-0.97 -0.09,-0.54 -1.59,-1.29 -2.49,-1.23 -1.32,0.07 -1.68,1.01 -2.43,1.41 -0.01,-0.45 0.33,-1.24 0.34,-2.95 0.02,-1.92 -0.97,-3.13 -2.21,-4.24 -0.34,-0.3 -1.39,-1.18 -1.94,-1.32 0.21,0.48 1.93,1.94 2.83,3.89 0.78,1.66 0.41,4.01 0.97,5.75l0 0z"/>
    <path class="fil13" d="M501.99 38.58c0.42,2.08 3.88,1.69 3.48,-0.62 -0.4,-2.3 -3.94,-1.65 -3.48,0.62z"/>
    <path class="fil14" d="M530.24 37.82c-2.47,0.68 -1.31,3.84 0.7,3.4 2.33,-0.5 1.45,-3.99 -0.7,-3.4z"/>
    <path class="fil15" d="M516.54 35.99c-0.67,0.37 -1.43,1.1 -0.89,2.31 0.31,0.72 1.37,1.26 2.35,0.81 2.03,-0.94 0.5,-4.2 -1.46,-3.12l0 0z"/>
    <path class="fil16" d="M527.32 41.27l1.92 0.2c-0.07,-0.64 0.03,-0.22 -0.35,-0.7 -0.15,-0.2 -0.24,-0.36 -0.33,-0.6 -0.55,-1.69 1.05,-2.4 1.2,-2.62 0.2,-0.32 0.29,-1.31 0.21,-1.71 -2.34,-0.24 -1.9,-0.71 -2.24,1.44 -0.12,0.79 -0.51,3.31 -0.41,3.99l0 0z"/>
    <path class="fil17" d="M502.58 30.02c0.69,-0.38 0.58,-1.03 1.08,-1.56 0.05,0.52 0.68,2.23 0.9,2.92 0.15,0.49 0.07,0.67 0.56,0.74 0.2,-0.32 0.11,-0.83 0.16,-1.32 0.38,0.49 0.23,0.75 0.54,1.22l1.6 0.01c0.27,-0.85 0.27,-1.8 -0.55,-2.09 -0.25,-0.09 -0.36,-0.11 -0.6,-0.22 -0.41,-0.17 -0.73,-0.35 -1.1,-0.57 -0.92,-0.56 -0.98,-0.86 -1.74,-1.5l-0.36 1.23c-0.18,0.51 -0.35,0.67 -0.49,1.14l0 0z"/>
    <path class="fil9" d="M509.84 40.66l0.97 0.06c0.21,-0.87 0.19,-4.56 0.21,-5.86 0.02,-1.03 -0.19,-0.74 -1.25,-0.72 -0.13,0.48 0.03,5.6 0.07,6.52l0 0z"/>
    <path class="fil9" d="M496.67 35.97l-0.17 6.11 1.1 -0.17c0.2,-1.02 0.15,-5.02 0.06,-6.17 -0.43,-0.05 -0.68,0.15 -0.99,0.23l0 0z"/>
    <path class="fil18" d="M526.35 35.56l-0.65 5.45 0.92 0.07c0.25,-0.64 0.74,-4.69 0.79,-5.56l-0.75 -0.04c-0.39,0.04 -0.17,0.01 -0.31,0.08l0 0z"/>
    <path class="fil3" d="M516.53 25.99c-0.16,-0.19 -0.32,-0.63 -0.27,-0.95 -0.14,0.85 0.01,1.46 0.3,2.06 0.16,0.3 0.32,0.56 0.47,0.82 0.23,0.33 0.29,0.5 0.63,0.69 0.16,-0.1 0.21,-0.1 0.32,-0.18l-0.24 -0.36c-0.08,-0.26 -0.02,-0.49 -0.01,-0.78l-0.14 -2.82c-0.01,-0.14 -0.03,-0.4 -0.06,-0.57 -0.07,-0.55 -0.09,-0.5 -0.28,-0.69 -0.52,1.02 -0.66,1.54 -0.72,2.78l0 0z"/>
    <path class="fil9" d="M505.56 43.09c-0.13,0.42 -0.23,0.96 0.03,1.33 0.41,-0.31 0.11,-0.11 0.39,-0.58 0.37,0.57 0.21,0.57 1.9,0.49l0.11 -1.3 -2.43 0.06z"/>
    <path class="fil19" d="M498.84 45.13c1,0.15 0.52,-0.32 0.9,-0.86l0.29 0.74 1.21 -0.22 0.05 -1.13c-0.67,-0.04 -1.91,0.16 -2.44,0.42l-0.01 1.05 0 0z"/>
    <path class="fil4" d="M496.44 33.47l1.02 -0.25c0.01,-1.54 0.26,-1.55 -1.37,-1.73 -0.03,0.56 0.16,1.59 0.35,1.98l0 0z"/>
    <polygon class="fil9" points="509.63,30.39 509.59,31.91 511,31.91 511.11,30.36 "/>
    <path class="fil4" d="M499.03 31.71l-0.12 1.09c0.42,-0.25 0.07,-0.12 0.18,-0.25 0.21,-0.24 -0.07,-0.1 0.23,-0.18 0.28,0.61 0.65,0.36 1.28,0.23l0.02 -1.06c-0.35,-0.06 -1.18,0.09 -1.59,0.17l0 0z"/>
    <path class="fil11" d="M489.92 25.02c0.51,0.37 0.56,0.16 1.14,-0.04 0.32,-0.1 0.8,-0.1 1.22,-0.16l0.11 -0.56c-0.81,-0.2 -2.23,-0.09 -2.47,0.76z"/>
    <path class="fil4" d="M497.67 45.44l0.07 -1.08c-0.49,0.01 -0.95,0.19 -1.36,0.34l-0.06 1.07 1.35 -0.33z"/>
    <path class="fil3" d="M510.05 44.18l0.79 0.08 0.06 -1.29c-1.08,-0.31 -0.84,0.28 -0.85,1.21z"/>
   </g>
   <path class="fil20" d="M6.25 337.87l100.4 0 10.94 -29.57 -69.11 0 21.88 -5.95 37.25 -102.53 -57.02 0 10.36 25.73 -10.16 -9.98 -44.54 122.3 0 0zm106.36 0l57.21 0 -10.36 -25.73 10.16 9.98 44.36 -122.3 -57.03 0 10.37 25.73 -10.17 -9.98 -44.54 122.3zm83.51 0l86.58 0 26.89 -19.78 35.91 -98.5 -12.49 -19.77 -112.32 0 10.37 25.73 -10.17 -9.98 -37.44 102.53 12.67 19.77 0 0zm22.47 -29.57l21.87 -5.95 26.51 -72.97 23.81 0 -28.81 78.92 -43.38 0 0 0zm94.06 29.57l57.22 0 -10.37 -25.73 10.18 9.98 15.93 -43.97 4.23 59.72 60.86 0 -10.56 -25.73 10.37 9.98 44.35 -122.3 -57.02 0 10.37 25.73 -10.18 -9.98 -16.12 43.97 -4.22 -59.72 -60.68 0 10.36 25.73 -10.18 -9.98 -44.54 122.3z"/>
   <path class="fil21" d="M487.45 337.87l57.21 0 -10.36 -25.73 10.18 9.98 11.71 -32.26 16.69 48.01 57.42 0 -25.73 -75.66 -19.59 9.61 88.51 -72 -57.41 0 -38.59 31.3 11.33 -31.3 -57.01 0 10.36 25.73 -10.18 -9.98 -44.54 122.3zm147.46 0l57.21 0 -10.37 -25.73 10.17 9.98 44.35 -122.3 -57.02 0 10.36 25.73 -10.16 -9.98 -44.54 122.3zm63.72 0l57.23 0 -10.37 -25.73 10.17 9.98 15.93 -43.97 4.23 59.72 60.86 0 -10.57 -25.73 10.38 9.98 44.35 -122.3 -57.02 0 10.37 25.73 -10.18 -9.98 -16.12 43.97 -4.23 -59.72 -60.67 0 10.36 25.73 -10.16 -9.98 -44.56 122.3zm298.94 -77.76l-55.1 0 -24.58 29.56 17.67 0 -6.72 18.63 -43.39 0 21.89 -5.96 26.49 -72.96 23.81 0 -8.06 21.71 54.9 -9.8 7.88 -21.7 -12.49 -19.77 -112.3 0 10.36 25.73 -10.18 -9.98 -37.44 102.52 12.67 19.78 86.6 0 26.87 -19.78 21.12 -57.98 0 0z"/>
   <path class="fil22" d="M222.67 140.84c-0.08,2.92 0.63,5.99 1.6,8.07 0.97,2.2 2.21,4.29 3.56,6.17l18.16 21.04c2.34,3.29 3.84,5.22 5.56,8.95 0.62,1.35 0.82,2.32 1.93,3.11 3.14,-4.47 2.01,-4.38 7.74,-11.67l7.07 -7.52c0.94,-0.9 1.65,-1.58 2.58,-2.48 0.89,-0.81 1.63,-1.46 2.45,-2.3 5.9,-6.07 12.75,-13.09 12.97,-21.78 0.48,-19.47 -24.54,-22.86 -31.42,-10.6 -1.09,-0.84 -0.91,-1.74 -3.96,-4.25 -0.53,-0.47 -1.04,-0.79 -1.7,-1.17 -7.1,-4.04 -15.68,-3.17 -21.25,2.13 -2.97,2.83 -5.15,6.66 -5.29,12.3l0 0z"/>
   <path class="fil22" d="M98.31 151.67l-0.58 0.37 0.58 -0.37zm-2.83 38.91l-14.52 0.46 -0.04 -0.01c-0.28,-1.09 -0.4,-0.86 0.59,-1.78 3.92,-3.68 5.2,-7.79 5.01,-13.99 -1.5,1.18 -5.05,7.96 -15,6.84 -2.93,-0.34 -5.28,-1.66 -7.38,-3.19 -5.94,-4.34 -8.39,-14.91 -1.52,-22.22 2.91,-3.09 6.87,-4.97 11.54,-4.89 1.75,0.04 2.89,0.51 4.31,0.8 -1.29,-1.82 -3.38,-2.67 -4.96,-7.01 -1.18,-3.18 -1.16,-6.94 -0.11,-9.91 1.79,-5.11 6.3,-10.05 13.39,-10.24 2.49,-0.08 3.57,-0.16 5.48,0.48 7.9,2.61 12.24,10.73 10.2,18.4 -1.23,4.59 -2.82,5.21 -4.16,7.35 2.91,-0.16 3.73,-1.61 9.36,-0.18 2.46,0.63 5.2,2.41 6.65,3.96 12.27,13.11 -3,31.48 -17.49,24.29 -4.1,-2.04 -4.3,-3.73 -5.73,-4.61 0.42,12.79 8.05,13.57 6.64,15.08 -0.14,0.15 -0.98,0.26 -2.26,0.37l0 0z"/>
   <path class="fil23" d="M318.22 162.79c0.1,5.36 0.83,7.7 4.76,11.46 4.72,4.55 12.57,4.91 18.15,1.53 3.48,-2.11 3.88,-3.77 5,-4.55 0.09,4.79 -1.3,11.17 -4.95,13.97 -0.85,0.67 -1.06,0.57 -1.33,1.64 1.22,0.68 14.29,0.06 16.7,0 1.15,-0.01 0.11,0.1 0.89,-0.3 -0.58,-2.03 -6.62,-3.34 -6.83,-15.4 1.14,0.74 1.58,2.39 5.16,4.37 5.7,3.18 13.48,2.54 18.07,-2.18 3.79,-3.89 4.44,-6.28 4.34,-11.64 -0.14,-7.6 -10.29,-15.92 -14.63,-20.09 -7.4,-7.17 -10.04,-9.1 -15.04,-17.51 -0.44,-0.77 -0.41,-0.72 -1.18,-1.23 -3.3,5.14 -2.03,4.42 -6.88,10.37 -6.95,8.53 -22.39,20.26 -22.23,29.56l0 0z"/>
   <path class="fil22" d="M150.06 154.8l6.56 7.32c3.23,3.56 9.6,12.59 11.84,16.15l5.22 8.89c0.95,-0.22 1.01,-0.79 1.6,-1.74 5.31,-8.72 7.48,-10.99 13.54,-18.32 2.09,-2.56 4.75,-5.01 6.84,-7.36 1.19,-1.36 2.63,-2.2 3.64,-3.61 -0.91,-1.84 -3.29,-3.76 -4.81,-5.48 -0.68,-0.79 -0.83,-1.22 -1.6,-2 -4.77,-4.98 -12.79,-17.13 -15.85,-22.92 -0.56,-1.06 -0.42,-1.61 -1.64,-1.98l-5.62 8.35c-5.85,8.26 -6.92,8.89 -12.76,15.45l-6.96 7.25 0 0z"/>
   <g>
    <path class="fil24" d="M811.18 169.68l14.66 0c0.36,0 0.26,0.12 0.44,0.32l4.87 6.52 -5.23 9.31c-0.36,0.6 -0.98,0.6 -2.11,0.78l-5.31 0.53c-0.6,0 -0.62,-0.12 -1.26,-0.14 -0.93,-0.02 -4.53,-0.18 -5.09,-0.73l-6.28 -9.75c0.37,-0.58 0.85,-1.15 1.29,-1.75l3.58 -4.77c0.18,-0.2 0.08,-0.32 0.44,-0.32zm21.86 5.45c-0.12,-0.5 -1.89,-2.63 -2.23,-3.08l-2.29 -3.03c-0.08,-0.1 -0.51,-0.63 -0.55,-0.69 -0.16,-0.38 1.59,-6.83 1.75,-7.42 0.35,-1.48 0.71,-2.83 1.05,-4.24 0.3,-1.19 0.02,-1.12 1.19,-1.47l10.07 -3.34 4.85 5.88c1.85,2.37 1.91,1.22 1.14,5.43 -0.62,3.37 -2.21,6.73 -3.84,9.55 -0.4,0.72 -0.26,0.7 -1.08,0.82 -1.17,0.18 -2.34,0.35 -3.38,0.53 -1.13,0.18 -2.25,0.38 -3.28,0.52 -1.13,0.16 -2.31,0.44 -3.4,0.54l0 0zm-44.5 -15.44c0,-0.13 5.71,-6.7 6.45,-7.83l4 1.31c1.39,0.46 2.68,0.89 3.99,1.33 3.29,1.1 2.91,0.64 3.25,2.07l2.64 10.62c0.32,1.22 0.38,0.88 -0.32,1.77l-4.57 6.17c-0.82,-0.08 -1.77,-0.28 -2.63,-0.42l-5.35 -0.85c-0.89,-0.12 -1.85,-0.38 -2.76,-0.38l-1.61 -2.95c-0.28,-0.55 -0.52,-0.97 -0.76,-1.53 -1.07,-2.58 -2.33,-6.42 -2.33,-9.31l0 0zm31.11 -14.92l0 -10.86c0.42,-0.09 0.94,-0.35 1.37,-0.53l4.24 -1.69c0.7,-0.28 5.35,-2.21 5.65,-2.21 0.78,0 4.67,2.56 5.45,3.14l2.35 1.95c0.45,0.44 1.01,0.8 1.63,1.53 0.65,0.76 3.26,3.5 3.14,4.3 -0.06,0.34 -0.14,0.46 -0.22,0.81 -0.06,0.24 -0.14,0.7 -0.2,0.94l-1.63 6.96c-0.22,0.78 -1.39,0.92 -2.9,1.41l-8.06 2.67c-0.4,0.04 -0.73,-0.38 -1.25,-0.8l-9.57 -7.62zm-2.29 -10.86l0 10.86c-1.41,0.96 -8.31,6.63 -10.26,8.2 -0.54,0.44 -0.76,0.16 -1.89,-0.22l-8.81 -2.92c-0.94,-0.3 -0.68,-0.26 -1,-1.65l-1.79 -7.48c-0.24,-0.92 0.14,-1.02 1.2,-2.43 1.05,-1.39 3.34,-3.74 4.65,-4.71 1.04,-0.76 1.95,-1.55 3.08,-2.21 4,-2.39 2.91,-2.15 7.21,-0.44l7.61 3zm-31.2 22.12c0,5.85 0.79,9.85 2.94,14.5 5.01,10.8 16.37,18.74 28.52,18.74 5.85,0 9.85,-0.79 14.5,-2.94 3.5,-1.63 6.75,-3.94 9.31,-6.51 5.43,-5.43 9.45,-13.66 9.45,-22.02 0,-6.52 -1.13,-11.51 -4.32,-17.06l-1.11 -1.79c-0.95,-1.38 -2.82,-3.76 -4.02,-4.96l-2.09 -1.82c-6.6,-5.34 -12.79,-7.62 -21.72,-7.62 -8.35,0 -16.57,3.99 -22.02,9.44 -5.45,5.46 -9.44,13.67 -9.44,22.04l0 0z"/>
    <path class="fil24" d="M709.83 181.41c0,0.88 0.91,1.5 1.82,2.41l4.62 4.6c0.27,0.22 0.32,0.22 0.59,0.45 1.66,1.57 1.49,1.13 4.6,-1.98l37.3 -37.31c0.6,-0.58 1.18,-0.88 0.73,-1.93 -1.35,-3.02 -1.6,-2.71 -4.19,-5.3 -0.68,-0.7 -0.76,-0.9 -1.71,-1.36 -2.54,-1.25 -2.23,-1.43 -3.74,0.08l-19.41 19.41c-0.88,0.88 -1.68,1.68 -2.56,2.56 -0.52,0.52 -0.79,0.75 -1.35,1.23 -1.3,1.08 -11.92,11.9 -14.29,14.3 -0.75,0.74 -2.41,2.12 -2.41,2.84l0 0z"/>
    <path class="fil24" d="M722.01 165.65c0.55,-0.15 0.86,-0.68 1.25,-1.06l2.37 -2.38c0.37,-0.36 1,-0.78 1,-1.44l0 -29.61c0,-1.92 -1.38,-1.54 -3.47,-1.54 -1.48,0 -1.15,1.99 -1.15,3.46l0 32.57 0 0z"/>
    <path class="fil24" d="M744.32 167.32l0 21.27c0,1.5 1.89,1.15 3.32,1.15 1.23,0 1.16,-1.08 1.16,-2.3l0 -24.74c-0.26,0.18 -4.48,4.22 -4.48,4.62l0 0z"/>
    <path class="fil24" d="M733.16 154.62c0.27,-0.17 4.49,-4.22 4.49,-4.61l0 -19.36c0,-1.4 -1.73,-1.03 -3.59,-1.03 -1.08,0 -0.9,1.94 -0.9,2.31l0 22.69 0 0z"/>
    <path class="fil24" d="M755.85 139.76l3.94 3.99c0.56,-0.39 6.9,-6.83 8.08,-8.01 0.56,-0.55 0.84,-0.95 0.93,-1.3l0 -0.35c-0.1,-0.48 -0.63,-0.95 -1.45,-1.75 -0.35,-0.34 -0.46,-0.46 -0.78,-0.88 -1.4,-1.81 -2.79,0.3 -3.82,1.33 -0.42,0.42 -0.75,0.75 -1.17,1.17 -0.44,0.45 -0.64,0.78 -1.08,1.21l-4.65 4.59 0 0z"/>
    <path class="fil24" d="M724.32 126.03l0 1.41 1.28 0c1.53,0 3.07,1.31 3.07,3.34l2.31 0c0.04,-1.83 1.47,-3.34 3.33,-3.34l2.18 0c1.89,0 3.34,1.45 3.34,3.34l2.31 0c0,-1.86 1.48,-3.34 3.32,-3.34l1.17 0c0,-1.08 0.15,-2.31 -1.42,-2.31l-19.74 0c-0.54,0 -1.15,0.43 -1.15,0.9z"/>
    <path class="fil24" d="M733.16 178.47l0 10.12c0,1.5 1.9,1.15 3.33,1.15 0.59,0 1.06,-0.4 1.14,-0.9l0.02 -14.99c-0.27,0.18 -4.49,4.22 -4.49,4.62z"/>
    <path class="fil24" d="M744.32 143.46c0.26,-0.16 4.48,-4.22 4.48,-4.6l0 -8.08c0,-1.56 -1.73,-1.16 -3.59,-1.16 -1.18,0 -0.89,2.09 -0.89,2.69l0 11.15z"/>
    <path class="fil24" d="M710.47 155.13c1.6,0 2.15,0.58 5.09,-0.68 1.94,-0.81 3.72,-2.49 4.57,-4.4 1.3,-2.98 0.77,-3.54 0.72,-5.31 -0.6,0.17 -4.76,4.57 -5.29,5.11 -0.51,0.51 -4.94,4.7 -5.09,5.28l0 0z"/>
    <path class="fil24" d="M703.16 145.91l0.13 2.04 10.41 -10.35c-2.74,-0.67 -5.69,0.48 -7.23,1.86l-0.73 0.7c0,0 -0.14,0.15 -0.18,0.2 -1.32,1.43 -2.4,3.42 -2.4,5.55l0 0z"/>
    <path class="fil24" d="M706.59 153.3c0.41,0.29 1.11,0.82 1.57,0.93l11.82 -11.76c-0.18,-0.73 -0.58,-1.07 -0.91,-1.57l-12.48 12.4 0 0z"/>
    <path class="fil24" d="M704.16 150.23c0.13,0.46 0.63,1.23 0.93,1.45l12.33 -12.29c-0.33,-0.48 -0.96,-0.73 -1.44,-1.05l-11.82 11.89z"/>
    <path class="fil24" d="M722.26 189.36c1.1,0.58 1.38,0.38 3.07,0.38 1.77,0 1.3,-2.74 1.3,-4.74 -0.48,0.13 -4.24,3.89 -4.37,4.36z"/>
    <path class="fil24" d="M641.18 186.02l-0.42 0 0 -9.65c3.67,0 7.5,-1.54 10.55,-3.4 1.01,-0.61 1.8,-1.42 2.73,-2.04l6.8 6.74c-0.19,0.31 -0.46,0.56 -0.77,0.85 -4.86,4.26 -12.4,7.5 -18.89,7.5l0 0zm-32.68 -29.47l0 -0.55 9.64 0c0,2.8 1.32,7 2.51,9.06 0.29,0.5 0.56,0.99 0.89,1.49l2.04 2.72 -6.8 6.88c-0.41,-0.6 -1.81,-2 -3.05,-3.87 -0.51,-0.79 -0.87,-1.39 -1.32,-2.17 -1.3,-2.24 -2.37,-4.84 -3.01,-7.46 -0.45,-1.81 -0.9,-3.93 -0.9,-6.1l0 0zm50.27 -1.4c-0.31,1.73 0.37,1.69 -1.01,6.12 -0.18,0.6 -0.45,1.13 -0.72,1.79 -2.55,6.23 -10.71,11.58 -17.72,10.99 -1.96,-0.17 -2.16,0.02 -4.22,-0.52 -3.79,-0.95 -6.53,-2.57 -9.25,-5.27 -2.83,-2.83 -5.03,-7.36 -5.32,-11.44 -0.19,-2.45 -0.14,-4.02 0.43,-6.51 1.4,-5.94 5.57,-10.61 11.09,-13.07 6.1,-2.72 13.39,-1.79 18.77,2 1.01,0.72 1.71,1.38 2.62,2.27 2.8,2.8 5.01,7.29 5.34,11.41l0.06 1.76c0.02,0.51 0,0.14 -0.06,0.47l-0.01 0zm-3.07 -14.65l6.8 -6.88c0.31,0.43 0.54,0.55 0.85,0.9 4.37,5.22 7.44,12.04 7.44,19.25l-9.65 0c0,-3.96 -1.91,-8.82 -4.39,-11.95 -0.35,-0.46 -0.76,-0.91 -1.05,-1.32l0 0zm-17.74 -16.77l0.56 0 0 9.64c-2.66,0 -5.67,0.99 -7.54,1.81 -1.51,0.66 -3.12,1.57 -4.41,2.58 -0.44,0.35 -0.89,0.78 -1.3,1.05l-6.82 -6.74c0.35,-0.56 0.78,-0.82 1.23,-1.19 2.35,-1.88 4.15,-3.12 7.01,-4.45 2.72,-1.26 7.42,-2.7 11.27,-2.7l0 0zm-31.83 29.9c0,5.97 0.7,10.67 3.17,15.53 1.13,2.29 2.29,4.31 3.83,6.23 0.31,0.39 0.6,0.8 0.93,1.17 3.19,3.59 7.05,6.78 11.48,8.76 9.27,4.14 18.93,4.14 28.21,0 0.92,-0.41 1.79,-0.93 2.65,-1.4 0.89,-0.46 1.63,-1.01 2.46,-1.59 2.88,-1.98 5.11,-4.16 7.23,-6.86 1.65,-2.08 2.68,-3.86 3.92,-6.31 5.72,-11.37 3.56,-26.1 -4.7,-35.89 -1.26,-1.47 -2.54,-2.7 -3.98,-3.98 -0.76,-0.66 -1.48,-1.17 -2.29,-1.77 -4.53,-3.34 -11.76,-6.16 -18.01,-6.16 -4.43,0 -5.21,-0.04 -9.72,1.01 -6.08,1.42 -12.28,5.38 -16.34,9.78 -2.33,2.52 -4.13,5.36 -5.67,8.43 -1.55,3.07 -3.17,8.49 -3.17,13.05l0 0z"/>
    <path class="fil24" d="M626.94 154.59c0,1.12 0.51,1.3 1.3,2.06l9.41 9.44c2.37,2.37 1.88,2.1 5.53,-1.54l7.8 -7.81c2.27,-2.27 1.78,-1.94 -1.6,-5.32l-6.2 -6.22c-0.46,-0.45 -2.85,-3.03 -3.26,-3.03 -1.18,0 -0.93,0.16 -2.21,1.42 -0.53,0.56 -0.98,1.01 -1.52,1.55l-7.75 7.74c-0.33,0.33 -1.5,1.28 -1.5,1.71l0 0z"/>
    <path class="fil25" d="M887.79 147.43c4.11,-0.61 14,-0.06 18.75,-0.06 4.29,0 11.45,-0.99 12.5,6.08 0.36,2.39 0.65,24.78 -0.58,27.43 -0.81,1.76 -3.07,3.66 -5.31,3.98 -4.43,0.64 -13.97,0.08 -18.94,0.08 -3.96,0 -11.64,0.99 -12.58,-6.04 -0.62,-4.64 -0.07,-13.83 -0.07,-18.94 0,-4.08 -1.17,-11.42 6.23,-12.53zm12.49 -4.77c0.03,-4 -0.64,-8.84 1.6,-11.37 2.85,-3.22 5.2,-2.66 10.33,-2.66 4.33,0.01 8.67,0 13,0 4.65,0 7.75,-0.64 10.54,2.12 2.81,2.77 2.11,6.22 2.11,10.87 0,4.33 0,8.67 0,13 0.01,5.05 0.49,7.38 -2.83,10.15 -2.46,2.05 -7.33,1.42 -11.19,1.45 -1.05,-8.15 1.88,-14.64 -3.51,-20.06 -5.22,-5.24 -12.06,-2.47 -20.05,-3.5zm23.44 28.14c5.92,0 10.02,0.72 14.25,-2.42 3.24,-2.41 4.59,-5.99 4.58,-11.76 -0.01,-5.44 0,-10.89 0,-16.33 0,-6.18 0.09,-9.2 -3.53,-12.81 -3.67,-3.65 -6.59,-3.53 -12.81,-3.53 -5.44,0 -10.89,0.01 -16.33,0 -5.87,-0.01 -9.26,1.22 -11.77,4.57 -3.11,4.17 -2.44,8.27 -2.41,14.26 -6,0 -9.91,-0.75 -14.25,2.42 -3.26,2.38 -4.59,6.03 -4.58,11.76 0.02,5.44 0.01,10.89 0.01,16.33 -0.01,6.23 -0.14,9.14 3.52,12.8 3.61,3.61 6.66,3.53 12.81,3.53 5.44,0 10.89,-0.01 16.33,0.01 5.75,0.01 9.37,-1.35 11.76,-4.58 3.13,-4.23 2.45,-8.16 2.42,-14.25z"/>
    <path class="fil25" d="M898.75 161.79c-5.56,2.04 -2.99,10.92 3.3,8.7 5.35,-1.9 2.73,-10.91 -3.3,-8.7z"/>
    <path class="fil25" d="M908.21 171.19c-5.68,1.92 -3.15,10.59 2.99,8.76 5.61,-1.66 3.2,-10.86 -2.99,-8.76z"/>
    <path class="fil25" d="M889.23 152.54c-5.68,2.3 -2.47,10.72 3.49,8.6 5.24,-1.87 2.72,-11.11 -3.49,-8.6z"/>
    <path class="fil25" d="M907.97 152.57c-5.92,2.66 -1.96,10.86 3.67,8.48 5.35,-2.26 2.04,-11.05 -3.67,-8.48z"/>
    <path class="fil25" d="M927.4 133.59c-6.53,1.74 -3.36,10.7 2.63,8.85 5.3,-1.63 3.25,-10.42 -2.63,-8.85z"/>
    <path class="fil25" d="M889.48 171.16c-5.74,2.05 -3.04,10.42 2.77,8.84 6.12,-1.67 3.02,-10.91 -2.77,-8.84z"/>
   </g>
   <path class="fil25" d="M971.76 181.18c-1.4,-0.49 -3.25,-1.74 -4.35,-2.48 -0.72,-0.49 -1.29,-1.01 -1.94,-1.51 -0.73,-0.56 -4.01,-3.82 -4.05,-4.46 -0.02,-0.32 0.23,-1.01 0.35,-1.27 0.63,-1.41 2.3,-3.01 3.52,-3.3l1.46 3.46c0.78,1.88 2.24,4.7 3.24,6.48l1.77 3.08zm11.17 2.53c-2.17,0 -4.94,-0.37 -6.92,-0.96 -0.54,-0.16 -0.63,-0.59 -0.94,-1.04l-2.21 -3.64c-1.01,-1.75 -4.57,-8.45 -5.07,-10.54 3.02,-0.07 5.16,1.23 7.51,2.33 6.76,3.17 13.48,6.4 21.49,6.4 2.35,0 3.23,-0.16 5.44,-0.33 -0.27,0.36 -0.55,0.52 -0.87,0.85 -1.46,1.5 -5.02,3.69 -7,4.54 -3.64,1.56 -7.04,2.39 -11.43,2.39zm-26.64 -22.45c1.27,0.1 2.26,0.17 3.58,0.12 1.01,-0.04 2.42,-0.28 3.29,-0.23l1.3 4.64c-0.93,0.23 -2.31,1.29 -2.88,1.78 -1.01,0.87 -1.29,1.52 -1.96,2.57 -0.49,-0.44 -1.68,-3.22 -2.02,-4.1 -0.51,-1.36 -1.11,-3.23 -1.31,-4.78zm9.39 -0.5c5.49,-0.61 17.3,-3.68 22.62,-5.04 3.63,-0.93 7.21,-1.97 10.77,-3l10.62 -3.13c0.62,3.53 1.06,4.98 0.75,8.91 -0.43,5.54 -2.26,9.79 -5.22,14.05 -0.26,0.37 -0.24,0.37 -0.74,0.47 -10.46,2.02 -17.05,-0.3 -26.44,-4.61 -1.07,-0.49 -2.24,-1.03 -3.25,-1.57 -1.05,-0.55 -2.27,-1 -3.47,-1.35 -2.14,-0.62 -2.67,-0.33 -4.4,-0.42 -0.34,-0.6 -1.08,-3.47 -1.24,-4.31zm-9.74 -2.18c-0.24,-1.43 -0.09,-3.94 0.07,-5.38 0.1,-0.83 0.23,-1.61 0.4,-2.44 0.16,-0.75 0.41,-1.51 0.54,-2.22 0.57,0.35 0.71,0.85 2.25,1.79 0.76,0.46 1.92,0.94 2.9,1.11 0,1.32 0.04,2.56 0.15,3.84 0.07,0.81 0.44,2.78 0.4,3.37 -1.86,0.24 -4.99,0.49 -6.71,-0.07zm8.7 -6.89c5.24,-0.57 7.68,-3.63 11.64,-6.79 5.48,-4.36 10.69,-8.03 18.16,-9.47 1.3,-0.25 2.7,-0.44 4.07,-0.55 0.96,-0.08 1.32,-0.25 1.9,0.24 1.05,0.9 1.41,1.17 2.37,2.18l1.11 1.22c1.82,2.04 4.35,6.02 5.04,8.67l-10.61 3.15c-7.92,2.35 -25.41,7.03 -33.16,7.97 -0.19,-1.4 -0.81,-5.3 -0.52,-6.62zm-2.41 -2.83c-1.11,0 -3.39,-1.56 -4.02,-3.06 -0.26,-0.6 0.67,-1.97 0.95,-2.52 1.54,-3.01 5.49,-7.67 8.41,-9.34 -0.59,0.97 -1.32,1.96 -1.9,3.11 -1.83,3.67 -3.18,7.47 -3.44,11.81zm2.48 0.28c0.59,-5.7 2.45,-10.81 5.87,-15.01 0.56,-0.68 2.6,-3.08 3.38,-3.51 0.98,-0.55 4.29,-1.2 5.59,-1.37 2.12,-0.28 4.37,-0.32 6.5,-0.09 2.81,0.29 7.7,1.58 10.24,3.18l0.25 0.23c-8.96,1.08 -16.27,5.61 -22.46,10.91 -1.99,1.7 -6.52,5.83 -9.37,5.66zm5.64 -20.6c-0.28,0.3 -1.66,0.92 -2.12,1.17 -3.77,2.1 -6.02,4.2 -8.66,7.27 -0.93,1.07 -1.84,2.38 -2.64,3.72 -1.56,2.62 -2.84,5.69 -3.6,9.14 -0.99,4.44 -0.75,7.37 -0.28,11.7 0.84,3.16 0.74,3.94 2.25,7.33 0.5,1.12 1.06,2.17 1.65,3.16 1.42,2.38 2.42,3.5 4.16,5.48 1.98,2.24 5.51,4.69 8.39,6.16 10.1,5.14 21.92,3.9 30.54,-1.83 10.75,-7.15 16.21,-20.65 12.61,-33.58 -1.26,-4.54 -2.95,-7.49 -5.77,-11.18 -0.97,-1.28 -2.94,-3.18 -4.19,-4.24l-1.37 -1.05c-0.16,-0.12 -0.62,-0.36 -0.66,-0.53 -0.46,-0.18 -1.22,-0.76 -1.72,-1.05 -3.99,-2.36 -7.95,-3.76 -12.63,-4.24 -0.19,-0.02 -0.41,-0.03 -0.63,-0.05l-0.53 -0.12c-0.37,0.11 -3.51,0.04 -4.28,0.1 -5.71,0.42 -10.2,2.63 -10.52,2.64z"/>
  </g>
 </g>
</svg>
